<?xml version="1.0" encoding="utf-8"?>
<!-- Generator: Adobe Illustrator 17.1.0, SVG Export Plug-In . SVG Version: 6.00 Build 0)  -->
<!DOCTYPE svg PUBLIC "-//W3C//DTD SVG 1.1//EN" "http://www.w3.org/Graphics/SVG/1.1/DTD/svg11.dtd">
<svg version="1.1" id="Layer_1" xmlns="http://www.w3.org/2000/svg" xmlns:xlink="http://www.w3.org/1999/xlink" x="0px" y="0px"
	 width="1400px" height="980px" viewBox="0 0 1400 980" enable-background="new 0 0 1400 980" xml:space="preserve">
<rect fill-rule="evenodd" clip-rule="evenodd" fill="#FFFFFF" width="1400" height="980"/>
<g>
	<path fill-rule="evenodd" clip-rule="evenodd" fill="#5CC1CF" d="M313.7,200.1c0,46.7-37.9,84.6-84.6,84.6
		c-46.8,0-84.6-37.9-84.6-84.6c0-31,18.6-47,18.3-79.9c-0.6-7.5,0.1-14.7,2-21.6c0.8-3.2,2-6.3,3.2-9.3c-3.4-4.5-22.8-30-17.9-39.3
		c3-2.4,34,13.2,36.4,14.5C198,54.9,212.8,49,229.1,49c16.4,0,31.4,6,42.9,15.7v-0.2c0,0,33.4-16.9,36.5-14.5
		c5.1,9.5-15.7,36.5-18.2,39.6c4.1,9.9,6,21,4.8,32.6C295.1,152.4,313.7,169.7,313.7,200.1L313.7,200.1z"/>
	<path fill-rule="evenodd" clip-rule="evenodd" fill="#8FD0E1" d="M308.1,230.2c-12.1,31.8-42.9,54.5-78.9,54.5
		s-66.9-22.6-79.1-54.5c17.6-21.3,46.4-35,79.1-35C261.6,195.2,290.5,209,308.1,230.2L308.1,230.2z"/>
	<path fill-rule="evenodd" clip-rule="evenodd" fill="#8FD0E1" d="M229.1,175c33.1,0,60.1-27,60.1-60.2c0-33.1-27-60.1-60.1-60.1
		c-33.2,0-60.2,27-60.2,60.1C168.9,147.9,195.9,175,229.1,175L229.1,175z"/>
	<path fill-rule="evenodd" clip-rule="evenodd" fill="#25A8B8" d="M195.5,143.8c14,0,25.5-11.4,25.5-25.5c0-14-11.5-25.4-25.5-25.4
		S170,104.3,170,118.3C170,132.4,181.4,143.8,195.5,143.8L195.5,143.8z"/>
	<path fill-rule="evenodd" clip-rule="evenodd" fill="#FFFFFF" d="M195.5,139.9c11.8,0,21.5-9.8,21.5-21.6s-9.7-21.5-21.5-21.5
		s-21.5,9.7-21.5,21.5S183.6,139.9,195.5,139.9L195.5,139.9z"/>
	<path fill-rule="evenodd" clip-rule="evenodd" d="M195.5,128.2c5.4,0,9.8-4.4,9.8-9.9c0-5.4-4.4-9.8-9.8-9.8s-9.9,4.4-9.9,9.8
		C185.6,123.8,190.1,128.2,195.5,128.2L195.5,128.2z"/>
	<path fill-rule="evenodd" clip-rule="evenodd" fill="#FFFFFF" d="M201.6,113.5c1.5,0,2.8-1.3,2.8-2.8c0-1.6-1.3-2.9-2.8-2.9
		c-1.5,0-2.8,1.3-2.8,2.9C198.8,112.2,200.1,113.5,201.6,113.5L201.6,113.5z"/>
	<path fill-rule="evenodd" clip-rule="evenodd" fill="#25A8B8" d="M262.8,143.8c14.1,0,25.5-11.4,25.5-25.5
		c0-14-11.4-25.4-25.5-25.4c-14,0-25.4,11.4-25.4,25.4C237.4,132.4,248.8,143.8,262.8,143.8L262.8,143.8z"/>
	<path fill-rule="evenodd" clip-rule="evenodd" fill="#FFFFFF" d="M262.8,139.9c11.9,0,21.6-9.8,21.6-21.6s-9.7-21.5-21.6-21.5
		c-11.8,0-21.5,9.7-21.5,21.5S251,139.9,262.8,139.9L262.8,139.9z"/>
	<path fill-rule="evenodd" clip-rule="evenodd" d="M262.8,128.2c5.5,0,9.9-4.4,9.9-9.9c0-5.4-4.4-9.8-9.9-9.8
		c-5.4,0-9.8,4.4-9.8,9.8C253,123.8,257.4,128.2,262.8,128.2L262.8,128.2z"/>
	<path fill-rule="evenodd" clip-rule="evenodd" fill="#FFFFFF" d="M269,113.5c1.5,0,2.8-1.3,2.8-2.8c0-1.6-1.3-2.9-2.8-2.9
		c-1.6,0-2.9,1.3-2.9,2.9C266.1,112.2,267.4,113.5,269,113.5L269,113.5z"/>
	<path fill-rule="evenodd" clip-rule="evenodd" fill="#FCEE18" d="M228.9,163.5l-6.8-14.5c0.1-8.4,13.2-8.4,13.6,0L228.9,163.5z"/>
	<path fill-rule="evenodd" clip-rule="evenodd" fill="#EE8322" d="M199.6,279.4v15.2l9.8,9.9c1.5,1.4,1.5,3.8,0,5.3l0,0
		c-1.4,1.4-3.8,1.4-5.2,0l-7.7-7.7c-0.2,0.1-0.5,0.1-0.7,0.1l0,0c-0.1,0-0.3,0-0.5-0.1l-7.6,7.7c-1.5,1.4-3.8,1.4-5.3,0l0,0
		c-1.4-1.5-1.4-3.9,0-5.3l9.7-9.7v-18.6C194.5,277.3,197.1,278.4,199.6,279.4L199.6,279.4z M266,276.2v18.4l9.9,9.9
		c1.4,1.4,1.4,3.8,0,5.3l0,0c-1.5,1.4-3.9,1.4-5.3,0L263,302c-0.2,0.1-0.5,0.1-0.7,0.1l0,0c-0.2,0-0.3,0-0.6-0.1l-7.6,7.7
		c-1.5,1.4-3.8,1.4-5.3,0l0,0c-1.4-1.5-1.4-3.9,0-5.3l9.7-9.7v-15.4C261.1,278.4,263.6,277.3,266,276.2L266,276.2z"/>
	<path fill-rule="evenodd" clip-rule="evenodd" fill="#25A8B8" d="M130,259.3c0,0,40-57.1,47-70.7s-12.3-36.3-24.4-24.8
		C140.5,175.2,130,259.3,130,259.3L130,259.3z"/>
	<path fill-rule="evenodd" clip-rule="evenodd" fill="#25A8B8" d="M327.9,259.3c0,0-40-57.1-47-70.7c-7-13.6,12.2-36.3,24.2-24.8
		C317.3,175.2,327.9,259.3,327.9,259.3L327.9,259.3z"/>
	<path fill-rule="evenodd" clip-rule="evenodd" fill="#25A8B8" d="M203.6,200.8c7.1,8.7,14.1,8.5,21.1,0
		C217.9,204.4,210.9,204.7,203.6,200.8L203.6,200.8z"/>
	<path fill-rule="evenodd" clip-rule="evenodd" fill="#25A8B8" d="M233.4,200.8c7,8.7,14.1,8.5,21.1,0
		C247.6,204.4,240.6,204.7,233.4,200.8L233.4,200.8z"/>
	<path fill-rule="evenodd" clip-rule="evenodd" fill="#25A8B8" d="M173.9,215.2c7.1,8.7,14.1,8.4,21.1,0
		C188.1,218.6,181.1,219.1,173.9,215.2L173.9,215.2z"/>
	<path fill-rule="evenodd" clip-rule="evenodd" fill="#25A8B8" d="M173.9,229.5c7.1,8.6,14.1,8.4,21.1,0
		C188.1,233,181.1,233.4,173.9,229.5L173.9,229.5z"/>
	<path fill-rule="evenodd" clip-rule="evenodd" fill="#25A8B8" d="M173.9,243.9c7.1,8.6,14.1,8.4,21.1,0
		C188.1,247.3,181.1,247.7,173.9,243.9L173.9,243.9z"/>
	<path fill-rule="evenodd" clip-rule="evenodd" fill="#25A8B8" d="M173.9,258.1c7.1,8.7,14.1,8.5,21.1,0
		C188.1,261.6,181.1,262,173.9,258.1L173.9,258.1z"/>
	<path fill-rule="evenodd" clip-rule="evenodd" fill="#25A8B8" d="M203.6,215.2c7.1,8.7,14.1,8.4,21.1,0
		C217.9,218.6,210.9,219.1,203.6,215.2L203.6,215.2z"/>
	<path fill-rule="evenodd" clip-rule="evenodd" fill="#25A8B8" d="M203.6,229.5c7.1,8.6,14.1,8.4,21.1,0
		C217.9,233,210.9,233.4,203.6,229.5L203.6,229.5z"/>
	<path fill-rule="evenodd" clip-rule="evenodd" fill="#25A8B8" d="M203.6,243.9c7.1,8.6,14.1,8.4,21.1,0
		C217.9,247.3,210.9,247.7,203.6,243.9L203.6,243.9z"/>
	<path fill-rule="evenodd" clip-rule="evenodd" fill="#25A8B8" d="M203.6,258.1c7.1,8.7,14.1,8.5,21.1,0
		C217.9,261.6,210.9,262,203.6,258.1L203.6,258.1z"/>
	<path fill-rule="evenodd" clip-rule="evenodd" fill="#25A8B8" d="M203.6,272.5c7.1,8.6,14.1,8.4,21.1,0
		C217.9,276,210.9,276.4,203.6,272.5L203.6,272.5z"/>
	<path fill-rule="evenodd" clip-rule="evenodd" fill="#25A8B8" d="M233.4,215.2c7,8.7,14.1,8.4,21.1,0
		C247.6,218.6,240.6,219.1,233.4,215.2L233.4,215.2z"/>
	<path fill-rule="evenodd" clip-rule="evenodd" fill="#25A8B8" d="M233.4,229.5c7,8.6,14.1,8.4,21.1,0
		C247.6,233,240.6,233.4,233.4,229.5L233.4,229.5z"/>
	<path fill-rule="evenodd" clip-rule="evenodd" fill="#25A8B8" d="M233.4,243.9c7,8.6,14.1,8.4,21.1,0
		C247.6,247.3,240.6,247.7,233.4,243.9L233.4,243.9z"/>
	<path fill-rule="evenodd" clip-rule="evenodd" fill="#25A8B8" d="M233.4,258.1c7,8.7,14.1,8.5,21.1,0
		C247.6,261.6,240.6,262,233.4,258.1L233.4,258.1z"/>
	<path fill-rule="evenodd" clip-rule="evenodd" fill="#25A8B8" d="M233.4,272.5c7,8.6,14.1,8.4,21.1,0
		C247.6,276,240.6,276.4,233.4,272.5L233.4,272.5z"/>
	<path fill-rule="evenodd" clip-rule="evenodd" fill="#25A8B8" d="M263.1,215.2c7,8.7,14.1,8.4,21.1,0
		C277.4,218.6,270.4,219.1,263.1,215.2L263.1,215.2z"/>
	<path fill-rule="evenodd" clip-rule="evenodd" fill="#25A8B8" d="M263.1,229.5c7,8.6,14.1,8.4,21.1,0
		C277.4,233,270.4,233.4,263.1,229.5L263.1,229.5z"/>
	<path fill-rule="evenodd" clip-rule="evenodd" fill="#25A8B8" d="M263.1,243.9c7,8.6,14.1,8.4,21.1,0
		C277.4,247.3,270.4,247.7,263.1,243.9L263.1,243.9z"/>
	<path fill-rule="evenodd" clip-rule="evenodd" fill="#25A8B8" d="M263.1,258.1c7,8.7,14.1,8.5,21.1,0
		C277.4,261.6,270.4,262,263.1,258.1L263.1,258.1z"/>
	<path fill-rule="evenodd" clip-rule="evenodd" fill="#E3097E" d="M633.9,200.1c0,46.7-37.9,84.6-84.6,84.6
		c-46.8,0-84.6-37.9-84.6-84.6c0-31,18.6-47,18.3-79.9c-0.6-7.5,0.1-14.7,2-21.6c0.8-3.2,2-6.3,3.2-9.3c-3.4-4.5-22.8-30-17.9-39.3
		c3-2.4,34,13.2,36.4,14.5C518.2,54.9,533,49,549.4,49c16.4,0,31.4,6,42.9,15.7v-0.2c0,0,33.4-16.9,36.5-14.5
		c5.1,9.5-15.7,36.5-18.2,39.6c4.1,9.9,6,21,4.8,32.6C615.3,152.4,633.9,169.7,633.9,200.1L633.9,200.1z"/>
	<path fill-rule="evenodd" clip-rule="evenodd" fill="#E52B8A" d="M628.3,230.2c-12.1,31.8-42.9,54.5-78.9,54.5
		c-36.1,0-66.9-22.6-79.1-54.5c17.6-21.3,46.4-35,79.1-35C581.9,195.2,610.7,209,628.3,230.2L628.3,230.2z"/>
	<path fill-rule="evenodd" clip-rule="evenodd" fill="#E52B8A" d="M549.4,175c33.1,0,60.1-27,60.1-60.2c0-33.1-27-60.1-60.1-60.1
		c-33.2,0-60.2,27-60.2,60.1C489.2,147.9,516.2,175,549.4,175L549.4,175z"/>
	<path fill-rule="evenodd" clip-rule="evenodd" fill="#AE1F66" d="M515.7,143.8c14,0,25.5-11.4,25.5-25.5c0-14-11.5-25.4-25.5-25.4
		s-25.5,11.4-25.5,25.4C490.2,132.4,501.7,143.8,515.7,143.8L515.7,143.8z"/>
	<path fill-rule="evenodd" clip-rule="evenodd" fill="#FFFFFF" d="M515.7,139.9c11.8,0,21.5-9.8,21.5-21.6s-9.7-21.5-21.5-21.5
		c-11.8,0-21.5,9.7-21.5,21.5S503.9,139.9,515.7,139.9L515.7,139.9z"/>
	<path fill-rule="evenodd" clip-rule="evenodd" d="M515.7,128.2c5.4,0,9.8-4.4,9.8-9.9c0-5.4-4.4-9.8-9.8-9.8
		c-5.4,0-9.9,4.4-9.9,9.8C505.8,123.8,510.3,128.2,515.7,128.2L515.7,128.2z"/>
	<path fill-rule="evenodd" clip-rule="evenodd" fill="#FFFFFF" d="M524.3,121.6c1.5,0,2.8-1.1,2.8-2.8c0-1.5-1.3-2.8-2.8-2.8
		s-2.8,1.3-2.8,2.8C521.6,120.5,522.8,121.6,524.3,121.6L524.3,121.6z"/>
	<path fill-rule="evenodd" clip-rule="evenodd" fill="#AE1F66" d="M583,143.8c14.1,0,25.5-11.4,25.5-25.5c0-14-11.4-25.4-25.5-25.4
		c-14,0-25.4,11.4-25.4,25.4C557.6,132.4,569,143.8,583,143.8L583,143.8z"/>
	<path fill-rule="evenodd" clip-rule="evenodd" fill="#FFFFFF" d="M583,139.9c11.8,0,21.6-9.8,21.6-21.6s-9.8-21.5-21.6-21.5
		c-11.8,0-21.5,9.7-21.5,21.5S571.2,139.9,583,139.9L583,139.9z"/>
	<path fill-rule="evenodd" clip-rule="evenodd" d="M583,128.2c5.5,0,9.9-4.4,9.9-9.9c0-5.4-4.4-9.8-9.9-9.8c-5.4,0-9.8,4.4-9.8,9.8
		C573.3,123.8,577.6,128.2,583,128.2L583,128.2z"/>
	<path fill-rule="evenodd" clip-rule="evenodd" fill="#FFFFFF" d="M592.1,121.6c1.5,0,2.8-1.1,2.8-2.8c0-1.5-1.3-2.8-2.8-2.8
		c-1.6,0-2.9,1.3-2.9,2.8C589.2,120.5,590.5,121.6,592.1,121.6L592.1,121.6z"/>
	<path fill-rule="evenodd" clip-rule="evenodd" fill="#FCEE18" d="M549.1,163.5l-6.8-14.5c0.1-8.4,13.2-8.4,13.6,0L549.1,163.5z"/>
	<path fill-rule="evenodd" clip-rule="evenodd" fill="#EE8322" d="M519.8,279.4v15.2l9.8,9.9c1.5,1.4,1.5,3.8,0,5.3l0,0
		c-1.4,1.4-3.8,1.4-5.2,0l-7.7-7.7c-0.2,0.1-0.5,0.1-0.7,0.1l0,0c-0.1,0-0.3,0-0.5-0.1l-7.6,7.7c-1.5,1.4-3.8,1.4-5.3,0l0,0
		c-1.4-1.5-1.4-3.9,0-5.3l9.7-9.7v-18.6C514.8,277.3,517.3,278.4,519.8,279.4L519.8,279.4z M586.2,276.2v18.4l9.9,9.9
		c1.4,1.4,1.4,3.8,0,5.3l0,0c-1.5,1.4-3.9,1.4-5.3,0l-7.6-7.7c-0.2,0.1-0.5,0.1-0.7,0.1l0,0c-0.2,0-0.3,0-0.6-0.1l-7.6,7.7
		c-1.5,1.4-3.8,1.4-5.3,0l0,0c-1.4-1.5-1.4-3.9,0-5.3l9.7-9.7v-15.4C581.3,278.4,583.8,277.3,586.2,276.2L586.2,276.2z"/>
	<path fill-rule="evenodd" clip-rule="evenodd" fill="#AE1F66" d="M555.7,161.6c0,0-67,19.2-81,25.3c-14,6.1-13.4,36,3.2,34.7
		C494.4,220.2,555.7,161.6,555.7,161.6L555.7,161.6z"/>
	<path fill-rule="evenodd" clip-rule="evenodd" fill="#AE1F66" d="M648.2,259.3c0,0-40-57.1-47-70.7c-7-13.6,12.2-36.3,24.2-24.8
		C637.5,175.2,648.2,259.3,648.2,259.3L648.2,259.3z"/>
	<path fill-rule="evenodd" clip-rule="evenodd" fill="#AE1F66" d="M523.9,200.8c7,8.7,14.1,8.5,21.1,0
		C538.1,204.4,531.1,204.7,523.9,200.8L523.9,200.8z"/>
	<path fill-rule="evenodd" clip-rule="evenodd" fill="#AE1F66" d="M553.6,200.8c7,8.7,14.1,8.5,21.1,0
		C567.9,204.4,560.9,204.7,553.6,200.8L553.6,200.8z"/>
	<path fill-rule="evenodd" clip-rule="evenodd" fill="#AE1F66" d="M494.1,215.2c7.1,8.7,14.1,8.4,21.1,0
		C508.3,218.6,501.3,219.1,494.1,215.2L494.1,215.2z"/>
	<path fill-rule="evenodd" clip-rule="evenodd" fill="#AE1F66" d="M494.1,229.5c7.1,8.6,14.1,8.4,21.1,0
		C508.3,233,501.3,233.4,494.1,229.5L494.1,229.5z"/>
	<path fill-rule="evenodd" clip-rule="evenodd" fill="#AE1F66" d="M494.1,243.9c7.1,8.6,14.1,8.4,21.1,0
		C508.3,247.3,501.3,247.7,494.1,243.9L494.1,243.9z"/>
	<path fill-rule="evenodd" clip-rule="evenodd" fill="#AE1F66" d="M494.1,258.1c7.1,8.7,14.1,8.5,21.1,0
		C508.3,261.6,501.3,262,494.1,258.1L494.1,258.1z"/>
	<path fill-rule="evenodd" clip-rule="evenodd" fill="#AE1F66" d="M523.9,215.2c7,8.7,14.1,8.4,21.1,0
		C538.1,218.6,531.1,219.1,523.9,215.2L523.9,215.2z"/>
	<path fill-rule="evenodd" clip-rule="evenodd" fill="#AE1F66" d="M523.9,229.5c7,8.6,14.1,8.4,21.1,0
		C538.1,233,531.1,233.4,523.9,229.5L523.9,229.5z"/>
	<path fill-rule="evenodd" clip-rule="evenodd" fill="#AE1F66" d="M523.9,243.9c7,8.6,14.1,8.4,21.1,0
		C538.1,247.3,531.1,247.7,523.9,243.9L523.9,243.9z"/>
	<path fill-rule="evenodd" clip-rule="evenodd" fill="#AE1F66" d="M523.9,258.1c7,8.7,14.1,8.5,21.1,0
		C538.1,261.6,531.1,262,523.9,258.1L523.9,258.1z"/>
	<path fill-rule="evenodd" clip-rule="evenodd" fill="#AE1F66" d="M523.9,272.5c7,8.6,14.1,8.4,21.1,0
		C538.1,276,531.1,276.4,523.9,272.5L523.9,272.5z"/>
	<path fill-rule="evenodd" clip-rule="evenodd" fill="#AE1F66" d="M553.6,215.2c7,8.7,14.1,8.4,21.1,0
		C567.9,218.6,560.9,219.1,553.6,215.2L553.6,215.2z"/>
	<path fill-rule="evenodd" clip-rule="evenodd" fill="#AE1F66" d="M553.6,229.5c7,8.6,14.1,8.4,21.1,0
		C567.9,233,560.9,233.4,553.6,229.5L553.6,229.5z"/>
	<path fill-rule="evenodd" clip-rule="evenodd" fill="#AE1F66" d="M553.6,243.9c7,8.6,14.1,8.4,21.1,0
		C567.9,247.3,560.9,247.7,553.6,243.9L553.6,243.9z"/>
	<path fill-rule="evenodd" clip-rule="evenodd" fill="#AE1F66" d="M553.6,258.1c7,8.7,14.1,8.5,21.1,0
		C567.9,261.6,560.9,262,553.6,258.1L553.6,258.1z"/>
	<path fill-rule="evenodd" clip-rule="evenodd" fill="#AE1F66" d="M553.6,272.5c7,8.6,14.1,8.4,21.1,0
		C567.9,276,560.9,276.4,553.6,272.5L553.6,272.5z"/>
	<path fill-rule="evenodd" clip-rule="evenodd" fill="#AE1F66" d="M583.4,215.2c7,8.7,14.1,8.4,21.1,0
		C597.6,218.6,590.6,219.1,583.4,215.2L583.4,215.2z"/>
	<path fill-rule="evenodd" clip-rule="evenodd" fill="#AE1F66" d="M583.4,229.5c7,8.6,14.1,8.4,21.1,0
		C597.6,233,590.6,233.4,583.4,229.5L583.4,229.5z"/>
	<path fill-rule="evenodd" clip-rule="evenodd" fill="#AE1F66" d="M583.4,243.9c7,8.6,14.1,8.4,21.1,0
		C597.6,247.3,590.6,247.7,583.4,243.9L583.4,243.9z"/>
	<path fill-rule="evenodd" clip-rule="evenodd" fill="#AE1F66" d="M583.4,258.1c7,8.7,14.1,8.5,21.1,0
		C597.6,261.6,590.6,262,583.4,258.1L583.4,258.1z"/>
	<path fill-rule="evenodd" clip-rule="evenodd" fill="#EE8322" d="M997.7,200.1c0,46.7-37.9,84.6-84.6,84.6
		c-46.8,0-84.6-37.9-84.6-84.6c0-31,18.6-47,18.3-79.9c-0.6-7.5,0.1-14.7,2-21.6c0.8-3.2,2-6.3,3.2-9.3c-3.4-4.5-22.8-30-17.9-39.3
		c3-2.4,34,13.2,36.4,14.5C882,54.9,896.8,49,913.1,49c16.4,0,31.4,6,42.9,15.7v-0.2c0,0,33.4-16.9,36.7-14.5
		c4.9,9.5-15.9,36.5-18.3,39.6c4.1,9.9,6,21,4.8,32.6C979.1,152.4,997.7,169.7,997.7,200.1L997.7,200.1z"/>
	<path fill-rule="evenodd" clip-rule="evenodd" fill="#F39B36" d="M992.2,230.2c-12.2,31.8-43,54.5-79.1,54.5
		c-36.1,0-66.9-22.6-79.1-54.5c17.6-21.3,46.4-35,79.1-35C945.7,195.2,974.5,209,992.2,230.2L992.2,230.2z"/>
	<path fill-rule="evenodd" clip-rule="evenodd" fill="#F39B36" d="M913.1,175c33.1,0,60.1-27,60.1-60.2c0-33.1-27-60.1-60.1-60.1
		c-33.2,0-60.2,27-60.2,60.1C852.9,147.9,879.9,175,913.1,175L913.1,175z"/>
	<path fill-rule="evenodd" clip-rule="evenodd" fill="#B56027" d="M879.5,143.8c14,0,25.5-11.4,25.5-25.5c0-14-11.5-25.4-25.5-25.4
		c-14,0-25.5,11.4-25.5,25.4C854,132.4,865.5,143.8,879.5,143.8L879.5,143.8z"/>
	<path fill-rule="evenodd" clip-rule="evenodd" fill="#FFFFFF" d="M879.5,139.9c11.8,0,21.5-9.8,21.5-21.6s-9.7-21.5-21.5-21.5
		c-11.8,0-21.5,9.7-21.5,21.5S867.6,139.9,879.5,139.9L879.5,139.9z"/>
	<path fill-rule="evenodd" clip-rule="evenodd" d="M879.5,128.2c5.4,0,9.8-4.4,9.8-9.9c0-5.4-4.4-9.8-9.8-9.8
		c-5.4,0-9.8,4.4-9.8,9.8C869.7,123.8,874.1,128.2,879.5,128.2L879.5,128.2z"/>
	<path fill-rule="evenodd" clip-rule="evenodd" fill="#FFFFFF" d="M885.6,113.5c1.5,0,2.8-1.3,2.8-2.8c0-1.6-1.3-2.9-2.8-2.9
		s-2.8,1.3-2.8,2.9C882.8,112.2,884.1,113.5,885.6,113.5L885.6,113.5z"/>
	<path fill-rule="evenodd" clip-rule="evenodd" fill="#B56027" d="M946.9,143.8c14,0,25.4-11.4,25.4-25.5c0-14-11.4-25.4-25.4-25.4
		s-25.5,11.4-25.5,25.4C921.4,132.4,932.9,143.8,946.9,143.8L946.9,143.8z"/>
	<path fill-rule="evenodd" clip-rule="evenodd" fill="#FFFFFF" d="M946.9,139.9c11.8,0,21.5-9.8,21.5-21.6s-9.7-21.5-21.5-21.5
		c-11.8,0-21.5,9.7-21.5,21.5S935.1,139.9,946.9,139.9L946.9,139.9z"/>
	<path fill-rule="evenodd" clip-rule="evenodd" d="M946.9,128.2c5.4,0,9.8-4.4,9.8-9.9c0-5.4-4.4-9.8-9.8-9.8
		c-5.4,0-9.9,4.4-9.9,9.8C937,123.8,941.5,128.2,946.9,128.2L946.9,128.2z"/>
	<path fill-rule="evenodd" clip-rule="evenodd" fill="#FFFFFF" d="M953,113.5c1.5,0,2.8-1.3,2.8-2.8c0-1.6-1.3-2.9-2.8-2.9
		c-1.6,0-2.9,1.3-2.9,2.9C950.1,112.2,951.4,113.5,953,113.5L953,113.5z"/>
	<path fill-rule="evenodd" clip-rule="evenodd" fill="#FCEE18" d="M912.9,163.5l-6.8-14.5c0.1-8.4,13.3-8.4,13.6,0L912.9,163.5z"/>
	<path fill-rule="evenodd" clip-rule="evenodd" fill="#EE8322" d="M883.6,279.4v15.2l9.9,9.9c1.4,1.4,1.4,3.8,0,5.3l0,0
		c-1.5,1.4-3.9,1.4-5.3,0l-7.6-7.7c-0.2,0.1-0.5,0.1-0.7,0.1l0,0c-0.2,0-0.3,0-0.6-0.1l-7.6,7.7c-1.5,1.4-3.8,1.4-5.3,0l0,0
		c-1.4-1.5-1.4-3.9,0-5.3l9.7-9.7v-18.6C878.6,277.3,881.1,278.4,883.6,279.4L883.6,279.4z M950,276.2v18.4l9.9,9.9
		c1.4,1.4,1.4,3.8,0,5.3l0,0c-1.5,1.4-3.8,1.4-5.3,0L947,302c-0.2,0.1-0.5,0.1-0.7,0.1l0,0c-0.2,0-0.3,0-0.6-0.1l-7.6,7.7
		c-1.4,1.4-3.8,1.4-5.3,0l0,0c-1.4-1.5-1.4-3.9,0-5.3l9.7-9.7v-15.4C945.1,278.4,947.6,277.3,950,276.2L950,276.2z"/>
	<path fill-rule="evenodd" clip-rule="evenodd" fill="#B56027" d="M915.1,254.1c0,0-43.5-54.6-54.5-65.1
		c-11-10.6-38.4,1.4-30.8,16.2C837.4,220,915.1,254.1,915.1,254.1L915.1,254.1z"/>
	<path fill-rule="evenodd" clip-rule="evenodd" fill="#B56027" d="M887.6,200.8c7.1,8.7,14.1,8.5,21.1,0
		C901.9,204.4,894.9,204.7,887.6,200.8L887.6,200.8z"/>
	<path fill-rule="evenodd" clip-rule="evenodd" fill="#B56027" d="M917.4,200.8c7.1,8.7,14.1,8.5,21.1,0
		C931.6,204.4,924.6,204.7,917.4,200.8L917.4,200.8z"/>
	<path fill-rule="evenodd" clip-rule="evenodd" fill="#B56027" d="M857.9,215.2c7.1,8.7,14.1,8.4,21.1,0
		C872.1,218.6,865.1,219.1,857.9,215.2L857.9,215.2z"/>
	<path fill-rule="evenodd" clip-rule="evenodd" fill="#B56027" d="M857.9,229.5c7.1,8.6,14.1,8.4,21.1,0
		C872.1,233,865.1,233.4,857.9,229.5L857.9,229.5z"/>
	<path fill-rule="evenodd" clip-rule="evenodd" fill="#B56027" d="M857.9,243.9c7.1,8.6,14.1,8.4,21.1,0
		C872.1,247.3,865.1,247.7,857.9,243.9L857.9,243.9z"/>
	<path fill-rule="evenodd" clip-rule="evenodd" fill="#B56027" d="M857.9,258.1c7.1,8.7,14.1,8.5,21.1,0
		C872.1,261.6,865.1,262,857.9,258.1L857.9,258.1z"/>
	<path fill-rule="evenodd" clip-rule="evenodd" fill="#B56027" d="M887.6,215.2c7.1,8.7,14.1,8.4,21.1,0
		C901.9,218.6,894.9,219.1,887.6,215.2L887.6,215.2z"/>
	<path fill-rule="evenodd" clip-rule="evenodd" fill="#B56027" d="M887.6,229.5c7.1,8.6,14.1,8.4,21.1,0
		C901.9,233,894.9,233.4,887.6,229.5L887.6,229.5z"/>
	<path fill-rule="evenodd" clip-rule="evenodd" fill="#B56027" d="M887.6,243.9c7.1,8.6,14.1,8.4,21.1,0
		C901.9,247.3,894.9,247.7,887.6,243.9L887.6,243.9z"/>
	<path fill-rule="evenodd" clip-rule="evenodd" fill="#B56027" d="M887.6,258.1c7.1,8.7,14.1,8.5,21.1,0
		C901.9,261.6,894.9,262,887.6,258.1L887.6,258.1z"/>
	<path fill-rule="evenodd" clip-rule="evenodd" fill="#B56027" d="M887.6,272.5c7.1,8.6,14.1,8.4,21.1,0
		C901.9,276,894.9,276.4,887.6,272.5L887.6,272.5z"/>
	<path fill-rule="evenodd" clip-rule="evenodd" fill="#B56027" d="M917.4,215.2c7.1,8.7,14.1,8.4,21.1,0
		C931.6,218.6,924.6,219.1,917.4,215.2L917.4,215.2z"/>
	<path fill-rule="evenodd" clip-rule="evenodd" fill="#B56027" d="M917.4,229.5c7.1,8.6,14.1,8.4,21.1,0
		C931.6,233,924.6,233.4,917.4,229.5L917.4,229.5z"/>
	<path fill-rule="evenodd" clip-rule="evenodd" fill="#B56027" d="M917.4,243.9c7.1,8.6,14.1,8.4,21.1,0
		C931.6,247.3,924.6,247.7,917.4,243.9L917.4,243.9z"/>
	<path fill-rule="evenodd" clip-rule="evenodd" fill="#B56027" d="M917.4,258.1c7.1,8.7,14.1,8.5,21.1,0
		C931.6,261.6,924.6,262,917.4,258.1L917.4,258.1z"/>
	<path fill-rule="evenodd" clip-rule="evenodd" fill="#B56027" d="M917.4,272.5c7.1,8.6,14.1,8.4,21.1,0
		C931.6,276,924.6,276.4,917.4,272.5L917.4,272.5z"/>
	<path fill-rule="evenodd" clip-rule="evenodd" fill="#B56027" d="M947.2,215.2c7,8.7,14.1,8.4,21.1,0
		C961.4,218.6,954.4,219.1,947.2,215.2L947.2,215.2z"/>
	<path fill-rule="evenodd" clip-rule="evenodd" fill="#B56027" d="M947.2,229.5c7,8.6,14.1,8.4,21.1,0
		C961.4,233,954.4,233.4,947.2,229.5L947.2,229.5z"/>
	<path fill-rule="evenodd" clip-rule="evenodd" fill="#B56027" d="M947.2,243.9c7,8.6,14.1,8.4,21.1,0
		C961.4,247.3,954.4,247.7,947.2,243.9L947.2,243.9z"/>
	<path fill-rule="evenodd" clip-rule="evenodd" fill="#B56027" d="M947.2,258.1c7,8.7,14.1,8.5,21.1,0
		C961.4,261.6,954.4,262,947.2,258.1L947.2,258.1z"/>
	<path fill-rule="evenodd" clip-rule="evenodd" fill="#AA5C3F" d="M1317.9,200.1c0,46.7-37.9,84.6-84.6,84.6
		c-46.8,0-84.6-37.9-84.6-84.6c0-31,18.6-47,18.3-79.9c-0.6-7.5,0.1-14.7,2-21.6c0.8-3.2,2-6.3,3.2-9.3c-3.4-4.5-22.8-30-17.9-39.3
		c3-2.4,34,13.2,36.4,14.5c11.5-9.7,26.3-15.5,42.6-15.5c16.4,0,31.4,6,42.9,15.7v-0.2c0,0,33.4-16.9,36.7-14.5
		c4.9,9.5-15.9,36.5-18.3,39.6c4.1,9.9,6,21,4.8,32.6C1299.3,152.4,1317.9,169.7,1317.9,200.1L1317.9,200.1z"/>
	<path fill-rule="evenodd" clip-rule="evenodd" fill="#BA785D" d="M1312.4,230.2c-12.2,31.8-43,54.5-79.1,54.5s-66.9-22.6-79.1-54.5
		c17.6-21.3,46.4-35,79.1-35C1265.9,195.2,1294.7,209,1312.4,230.2L1312.4,230.2z"/>
	<path fill-rule="evenodd" clip-rule="evenodd" fill="#BA785D" d="M1233.4,175c33.1,0,60.1-27,60.1-60.2c0-33.1-27-60.1-60.1-60.1
		c-33.2,0-60.2,27-60.2,60.1C1173.2,147.9,1200.2,175,1233.4,175L1233.4,175z"/>
	<path fill-rule="evenodd" clip-rule="evenodd" fill="#80402B" d="M1199.7,143.8c14,0,25.5-11.4,25.5-25.5c0-14-11.5-25.4-25.5-25.4
		c-14,0-25.5,11.4-25.5,25.4C1174.2,132.4,1185.7,143.8,1199.7,143.8L1199.7,143.8z"/>
	<path fill-rule="evenodd" clip-rule="evenodd" fill="#FFFFFF" d="M1199.7,139.9c11.8,0,21.5-9.8,21.5-21.6s-9.7-21.5-21.5-21.5
		s-21.5,9.7-21.5,21.5S1187.9,139.9,1199.7,139.9L1199.7,139.9z"/>
	<path fill-rule="evenodd" clip-rule="evenodd" d="M1199.7,128.2c5.4,0,9.8-4.4,9.8-9.9c0-5.4-4.4-9.8-9.8-9.8s-9.8,4.4-9.8,9.8
		C1189.9,123.8,1194.3,128.2,1199.7,128.2L1199.7,128.2z"/>
	<path fill-rule="evenodd" clip-rule="evenodd" fill="#FFFFFF" d="M1205.8,113.5c1.5,0,2.8-1.3,2.8-2.8c0-1.6-1.3-2.9-2.8-2.9
		c-1.5,0-2.8,1.3-2.8,2.9C1203,112.2,1204.3,113.5,1205.8,113.5L1205.8,113.5z"/>
	<path fill-rule="evenodd" clip-rule="evenodd" fill="#80402B" d="M1267.2,143.8c14,0,25.4-11.4,25.4-25.5c0-14-11.4-25.4-25.4-25.4
		c-14.1,0-25.5,11.4-25.5,25.4C1241.7,132.4,1253,143.8,1267.2,143.8L1267.2,143.8z"/>
	<path fill-rule="evenodd" clip-rule="evenodd" fill="#FFFFFF" d="M1267.2,139.9c11.8,0,21.5-9.8,21.5-21.6s-9.7-21.5-21.5-21.5
		c-11.8,0-21.5,9.7-21.5,21.5S1255.3,139.9,1267.2,139.9L1267.2,139.9z"/>
	<path fill-rule="evenodd" clip-rule="evenodd" d="M1267.2,128.2c5.4,0,9.8-4.4,9.8-9.9c0-5.4-4.4-9.8-9.8-9.8
		c-5.4,0-9.9,4.4-9.9,9.8C1257.3,123.8,1261.8,128.2,1267.2,128.2L1267.2,128.2z"/>
	<path fill-rule="evenodd" clip-rule="evenodd" fill="#FFFFFF" d="M1273.2,113.5c1.5,0,2.8-1.3,2.8-2.8c0-1.6-1.3-2.9-2.8-2.9
		c-1.6,0-2.9,1.3-2.9,2.9C1270.4,112.2,1271.6,113.5,1273.2,113.5L1273.2,113.5z"/>
	<path fill-rule="evenodd" clip-rule="evenodd" fill="#FCEE18" d="M1233.1,163.5l-6.8-14.5c0.1-8.4,13.3-8.4,13.6,0L1233.1,163.5z"
		/>
	<path fill-rule="evenodd" clip-rule="evenodd" fill="#EE8322" d="M1203.8,279.4v15.2l9.9,9.9c1.4,1.4,1.4,3.8,0,5.3l0,0
		c-1.5,1.4-3.9,1.4-5.3,0l-7.6-7.7c-0.2,0.1-0.5,0.1-0.7,0.1h-0.1c-0.1,0-0.2,0-0.5-0.1l-7.6,7.7c-1.5,1.4-3.8,1.4-5.3,0l0,0
		c-1.4-1.5-1.4-3.9,0-5.3l9.7-9.7v-18.6C1198.8,277.3,1201.3,278.4,1203.8,279.4L1203.8,279.4z M1270.3,276.2v18.4l9.9,9.9
		c1.4,1.4,1.4,3.8,0,5.3l0,0c-1.5,1.4-3.8,1.4-5.3,0l-7.6-7.7c-0.2,0.1-0.5,0.1-0.7,0.1l0,0c-0.2,0-0.3,0-0.6-0.1l-7.6,7.7
		c-1.4,1.4-3.8,1.4-5.3,0l0,0c-1.4-1.5-1.4-3.9,0-5.3l9.7-9.7v-15.4C1265.3,278.4,1267.8,277.3,1270.3,276.2L1270.3,276.2z"/>
	<path fill-rule="evenodd" clip-rule="evenodd" fill="#80402B" d="M1272.8,113.8c0,0,40,57.1,47,70.7c7,13.6-12.2,36.3-24.2,24.9
		C1283.5,197.9,1272.8,113.8,1272.8,113.8L1272.8,113.8z"/>
	<path fill-rule="evenodd" clip-rule="evenodd" fill="#80402B" d="M1207.9,200.8c7.1,8.7,14.1,8.5,21.1,0
		C1222.1,204.4,1215.1,204.7,1207.9,200.8L1207.9,200.8z"/>
	<path fill-rule="evenodd" clip-rule="evenodd" fill="#80402B" d="M1237.6,200.8c7.1,8.7,14.1,8.5,21.1,0
		C1251.9,204.4,1244.9,204.7,1237.6,200.8L1237.6,200.8z"/>
	<path fill-rule="evenodd" clip-rule="evenodd" fill="#80402B" d="M1178.1,215.2c7.1,8.7,14.1,8.4,21.1,0
		C1192.4,218.6,1185.3,219.1,1178.1,215.2L1178.1,215.2z"/>
	<path fill-rule="evenodd" clip-rule="evenodd" fill="#80402B" d="M1178.1,229.5c7.1,8.6,14.1,8.4,21.1,0
		C1192.4,233,1185.3,233.4,1178.1,229.5L1178.1,229.5z"/>
	<path fill-rule="evenodd" clip-rule="evenodd" fill="#80402B" d="M1178.1,243.9c7.1,8.6,14.1,8.4,21.1,0
		C1192.4,247.3,1185.3,247.7,1178.1,243.9L1178.1,243.9z"/>
	<path fill-rule="evenodd" clip-rule="evenodd" fill="#80402B" d="M1178.1,258.1c7.1,8.7,14.1,8.5,21.1,0
		C1192.4,261.6,1185.3,262,1178.1,258.1L1178.1,258.1z"/>
	<path fill-rule="evenodd" clip-rule="evenodd" fill="#80402B" d="M1207.9,215.2c7.1,8.7,14.1,8.4,21.1,0
		C1222.1,218.6,1215.1,219.1,1207.9,215.2L1207.9,215.2z"/>
	<path fill-rule="evenodd" clip-rule="evenodd" fill="#80402B" d="M1207.9,229.5c7.1,8.6,14.1,8.4,21.1,0
		C1222.1,233,1215.1,233.4,1207.9,229.5L1207.9,229.5z"/>
	<path fill-rule="evenodd" clip-rule="evenodd" fill="#80402B" d="M1207.9,243.9c7.1,8.6,14.1,8.4,21.1,0
		C1222.1,247.3,1215.1,247.7,1207.9,243.9L1207.9,243.9z"/>
	<path fill-rule="evenodd" clip-rule="evenodd" fill="#80402B" d="M1207.9,258.1c7.1,8.7,14.1,8.5,21.1,0
		C1222.1,261.6,1215.1,262,1207.9,258.1L1207.9,258.1z"/>
	<path fill-rule="evenodd" clip-rule="evenodd" fill="#80402B" d="M1207.9,272.5c7.1,8.6,14.1,8.4,21.1,0
		C1222.1,276,1215.1,276.4,1207.9,272.5L1207.9,272.5z"/>
	<path fill-rule="evenodd" clip-rule="evenodd" fill="#80402B" d="M1237.6,215.2c7.1,8.7,14.1,8.4,21.1,0
		C1251.9,218.6,1244.9,219.1,1237.6,215.2L1237.6,215.2z"/>
	<path fill-rule="evenodd" clip-rule="evenodd" fill="#80402B" d="M1237.6,229.5c7.1,8.6,14.1,8.4,21.1,0
		C1251.9,233,1244.9,233.4,1237.6,229.5L1237.6,229.5z"/>
	<path fill-rule="evenodd" clip-rule="evenodd" fill="#80402B" d="M1237.6,243.9c7.1,8.6,14.1,8.4,21.1,0
		C1251.9,247.3,1244.9,247.7,1237.6,243.9L1237.6,243.9z"/>
	<path fill-rule="evenodd" clip-rule="evenodd" fill="#80402B" d="M1237.6,258.1c7.1,8.7,14.1,8.5,21.1,0
		C1251.9,261.6,1244.9,262,1237.6,258.1L1237.6,258.1z"/>
	<path fill-rule="evenodd" clip-rule="evenodd" fill="#80402B" d="M1237.6,272.5c7.1,8.6,14.1,8.4,21.1,0
		C1251.9,276,1244.9,276.4,1237.6,272.5L1237.6,272.5z"/>
	<path fill-rule="evenodd" clip-rule="evenodd" fill="#80402B" d="M1267.4,215.2c7,8.7,14.1,8.4,21.1,0
		C1281.6,218.6,1274.6,219.1,1267.4,215.2L1267.4,215.2z"/>
	<path fill-rule="evenodd" clip-rule="evenodd" fill="#80402B" d="M1267.4,229.5c7,8.6,14.1,8.4,21.1,0
		C1281.6,233,1274.6,233.4,1267.4,229.5L1267.4,229.5z"/>
	<path fill-rule="evenodd" clip-rule="evenodd" fill="#80402B" d="M1267.4,243.9c7,8.6,14.1,8.4,21.1,0
		C1281.6,247.3,1274.6,247.7,1267.4,243.9L1267.4,243.9z"/>
	<path fill-rule="evenodd" clip-rule="evenodd" fill="#80402B" d="M1267.4,258.1c7,8.7,14.1,8.5,21.1,0
		C1281.6,261.6,1274.6,262,1267.4,258.1L1267.4,258.1z"/>
	<path fill-rule="evenodd" clip-rule="evenodd" fill="#A22382" d="M313.7,510.1c0,46.8-37.9,84.6-84.6,84.6
		c-46.8,0-84.6-37.8-84.6-84.6c0-30.9,18.6-47,18.3-79.7c-0.6-7.5,0.1-14.8,2-21.6c0.8-3.2,2-6.3,3.2-9.4
		c-3.4-4.5-22.8-30-17.9-39.2c3-2.4,34,13.2,36.4,14.4c11.5-9.5,26.3-15.4,42.6-15.4c16.4,0,31.4,6,42.9,15.6v-0.1
		c0,0,33.4-17,36.5-14.5c5.1,9.5-15.7,36.4-18.2,39.6c4.1,9.9,6,21,4.8,32.5C295.1,462.6,313.7,479.8,313.7,510.1L313.7,510.1z"/>
	<path fill-rule="evenodd" clip-rule="evenodd" fill="#B44896" d="M308.1,540.3c-12.1,31.8-42.9,54.3-78.9,54.3
		s-66.9-22.5-79.1-54.3c17.6-21.3,46.4-35.2,79.1-35.2C261.6,505.2,290.5,519.1,308.1,540.3L308.1,540.3z"/>
	<path fill-rule="evenodd" clip-rule="evenodd" fill="#B44896" d="M229.1,485.1c33.1,0,60.1-27,60.1-60.2c0-33.1-27-60.2-60.1-60.2
		c-33.2,0-60.2,27.1-60.2,60.2C168.9,458.1,195.9,485.1,229.1,485.1L229.1,485.1z"/>
	<path fill-rule="evenodd" clip-rule="evenodd" fill="#6D1D5A" d="M195.5,453.9c14,0,25.5-11.5,25.5-25.5c0-14-11.5-25.4-25.5-25.4
		S170,414.4,170,428.4C170,442.4,181.4,453.9,195.5,453.9L195.5,453.9z"/>
	<path fill-rule="evenodd" clip-rule="evenodd" fill="#FFFFFF" d="M195.5,449.9c11.8,0,21.5-9.7,21.5-21.5
		c0-11.8-9.7-21.5-21.5-21.5s-21.5,9.7-21.5,21.5C174,440.3,183.6,449.9,195.5,449.9L195.5,449.9z"/>
	<path fill-rule="evenodd" clip-rule="evenodd" d="M195.5,438.3c5.4,0,9.8-4.5,9.8-9.9c0-5.4-4.4-9.8-9.8-9.8s-9.9,4.4-9.9,9.8
		C185.6,433.8,190.1,438.3,195.5,438.3L195.5,438.3z"/>
	<path fill-rule="evenodd" clip-rule="evenodd" fill="#FFFFFF" d="M201.6,423.6c1.5,0,2.8-1.3,2.8-2.9c0-1.5-1.3-2.8-2.8-2.8
		c-1.5,0-2.8,1.3-2.8,2.8C198.8,422.3,200.1,423.6,201.6,423.6L201.6,423.6z"/>
	<path fill-rule="evenodd" clip-rule="evenodd" fill="#6D1D5A" d="M262.8,453.9c14.1,0,25.5-11.5,25.5-25.5
		c0-14-11.4-25.4-25.5-25.4c-14,0-25.4,11.4-25.4,25.4C237.4,442.4,248.8,453.9,262.8,453.9L262.8,453.9z"/>
	<path fill-rule="evenodd" clip-rule="evenodd" fill="#FFFFFF" d="M262.8,449.9c11.9,0,21.6-9.7,21.6-21.5
		c0-11.8-9.7-21.5-21.6-21.5c-11.8,0-21.5,9.7-21.5,21.5C241.3,440.3,251,449.9,262.8,449.9L262.8,449.9z"/>
	<path fill-rule="evenodd" clip-rule="evenodd" d="M262.8,438.3c5.5,0,9.9-4.5,9.9-9.9c0-5.4-4.4-9.8-9.9-9.8
		c-5.4,0-9.8,4.4-9.8,9.8C253,433.8,257.4,438.3,262.8,438.3L262.8,438.3z"/>
	<path fill-rule="evenodd" clip-rule="evenodd" fill="#FFFFFF" d="M269,423.6c1.5,0,2.8-1.3,2.8-2.9c0-1.5-1.3-2.8-2.8-2.8
		c-1.6,0-2.9,1.3-2.9,2.8C266.1,422.3,267.4,423.6,269,423.6L269,423.6z"/>
	<path fill-rule="evenodd" clip-rule="evenodd" fill="#FCEE18" d="M228.9,473.6l-6.8-14.5c0.1-8.4,13.2-8.4,13.6,0L228.9,473.6z"/>
	<path fill-rule="evenodd" clip-rule="evenodd" fill="#EE8322" d="M199.6,589.4v15.3l9.8,9.9c1.5,1.4,1.5,3.8,0,5.2l0,0
		c-1.4,1.5-3.8,1.5-5.2,0l-7.7-7.6c-0.2,0-0.5,0.1-0.7,0.1l0,0c-0.1,0-0.3-0.1-0.5-0.1l-7.6,7.6c-1.5,1.5-3.8,1.5-5.3,0l0,0
		c-1.4-1.4-1.4-3.8,0-5.2l9.7-9.7v-18.6C194.5,587.5,197.1,588.5,199.6,589.4L199.6,589.4z M266,586.3v18.4l9.9,9.9
		c1.4,1.4,1.4,3.8,0,5.2l0,0c-1.5,1.5-3.9,1.5-5.3,0l-7.6-7.6c-0.2,0-0.5,0.1-0.7,0.1l0,0c-0.2,0-0.3-0.1-0.6-0.1l-7.6,7.6
		c-1.5,1.5-3.8,1.5-5.3,0l0,0c-1.4-1.4-1.4-3.8,0-5.2l9.7-9.7v-15.5C261.1,588.5,263.6,587.5,266,586.3L266,586.3z"/>
	<path fill-rule="evenodd" clip-rule="evenodd" fill="#6D1D5A" d="M121,409.9c0,0,40,57.2,47,70.8c7,13.4-12.2,36.3-24.2,24.8
		C131.7,494,121,409.9,121,409.9L121,409.9z"/>
	<path fill-rule="evenodd" clip-rule="evenodd" fill="#6D1D5A" d="M203.6,510.9c7.1,8.7,14.1,8.4,21.1,0
		C217.9,514.4,210.9,514.8,203.6,510.9L203.6,510.9z"/>
	<path fill-rule="evenodd" clip-rule="evenodd" fill="#6D1D5A" d="M233.4,510.9c7,8.7,14.1,8.4,21.1,0
		C247.6,514.4,240.6,514.8,233.4,510.9L233.4,510.9z"/>
	<path fill-rule="evenodd" clip-rule="evenodd" fill="#6D1D5A" d="M173.9,525.3c7.1,8.6,14.1,8.4,21.1,0
		C188.1,528.7,181.1,529.2,173.9,525.3L173.9,525.3z"/>
	<path fill-rule="evenodd" clip-rule="evenodd" fill="#6D1D5A" d="M173.9,539.7c7.1,8.6,14.1,8.4,21.1,0
		C188.1,543.1,181.1,543.4,173.9,539.7L173.9,539.7z"/>
	<path fill-rule="evenodd" clip-rule="evenodd" fill="#6D1D5A" d="M173.9,553.9c7.1,8.7,14.1,8.5,21.1,0
		C188.1,557.3,181.1,557.8,173.9,553.9L173.9,553.9z"/>
	<path fill-rule="evenodd" clip-rule="evenodd" fill="#6D1D5A" d="M173.9,568.3c7.1,8.6,14.1,8.4,21.1,0
		C188.1,571.7,181.1,572.2,173.9,568.3L173.9,568.3z"/>
	<path fill-rule="evenodd" clip-rule="evenodd" fill="#6D1D5A" d="M203.6,525.3c7.1,8.6,14.1,8.4,21.1,0
		C217.9,528.7,210.9,529.2,203.6,525.3L203.6,525.3z"/>
	<path fill-rule="evenodd" clip-rule="evenodd" fill="#6D1D5A" d="M203.6,539.7c7.1,8.6,14.1,8.4,21.1,0
		C217.9,543.1,210.9,543.4,203.6,539.7L203.6,539.7z"/>
	<path fill-rule="evenodd" clip-rule="evenodd" fill="#6D1D5A" d="M203.6,553.9c7.1,8.7,14.1,8.5,21.1,0
		C217.9,557.3,210.9,557.8,203.6,553.9L203.6,553.9z"/>
	<path fill-rule="evenodd" clip-rule="evenodd" fill="#6D1D5A" d="M203.6,568.3c7.1,8.6,14.1,8.4,21.1,0
		C217.9,571.7,210.9,572.2,203.6,568.3L203.6,568.3z"/>
	<path fill-rule="evenodd" clip-rule="evenodd" fill="#6D1D5A" d="M203.6,582.6c7.1,8.6,14.1,8.4,21.1,0
		C217.9,586.1,210.9,586.5,203.6,582.6L203.6,582.6z"/>
	<path fill-rule="evenodd" clip-rule="evenodd" fill="#6D1D5A" d="M233.4,525.3c7,8.6,14.1,8.4,21.1,0
		C247.6,528.7,240.6,529.2,233.4,525.3L233.4,525.3z"/>
	<path fill-rule="evenodd" clip-rule="evenodd" fill="#6D1D5A" d="M233.4,539.7c7,8.6,14.1,8.4,21.1,0
		C247.6,543.1,240.6,543.4,233.4,539.7L233.4,539.7z"/>
	<path fill-rule="evenodd" clip-rule="evenodd" fill="#6D1D5A" d="M233.4,553.9c7,8.7,14.1,8.5,21.1,0
		C247.6,557.3,240.6,557.8,233.4,553.9L233.4,553.9z"/>
	<path fill-rule="evenodd" clip-rule="evenodd" fill="#6D1D5A" d="M233.4,568.3c7,8.6,14.1,8.4,21.1,0
		C247.6,571.7,240.6,572.2,233.4,568.3L233.4,568.3z"/>
	<path fill-rule="evenodd" clip-rule="evenodd" fill="#6D1D5A" d="M233.4,582.6c7,8.6,14.1,8.4,21.1,0
		C247.6,586.1,240.6,586.5,233.4,582.6L233.4,582.6z"/>
	<path fill-rule="evenodd" clip-rule="evenodd" fill="#6D1D5A" d="M263.1,525.3c7,8.6,14.1,8.4,21.1,0
		C277.4,528.7,270.4,529.2,263.1,525.3L263.1,525.3z"/>
	<path fill-rule="evenodd" clip-rule="evenodd" fill="#6D1D5A" d="M263.1,539.7c7,8.6,14.1,8.4,21.1,0
		C277.4,543.1,270.4,543.4,263.1,539.7L263.1,539.7z"/>
	<path fill-rule="evenodd" clip-rule="evenodd" fill="#6D1D5A" d="M263.1,553.9c7,8.7,14.1,8.5,21.1,0
		C277.4,557.3,270.4,557.8,263.1,553.9L263.1,553.9z"/>
	<path fill-rule="evenodd" clip-rule="evenodd" fill="#6D1D5A" d="M263.1,568.3c7,8.6,14.1,8.4,21.1,0
		C277.4,571.7,270.4,572.2,263.1,568.3L263.1,568.3z"/>
	<path fill-rule="evenodd" clip-rule="evenodd" fill="#3E3938" d="M313.7,820.2c0,46.8-37.9,84.6-84.6,84.6
		c-46.8,0-84.6-37.8-84.6-84.6c0-31,18.6-47,18.3-79.9c-0.6-7.5,0.1-14.7,2-21.5c0.8-3.2,2-6.4,3.2-9.4c-3.4-4.5-22.8-30-17.9-39.3
		c3-2.3,34,13.3,36.4,14.5c11.5-9.7,26.3-15.4,42.6-15.4c16.4,0,31.4,5.9,42.9,15.6v-0.1c0,0,33.4-17,36.5-14.6
		c5.1,9.7-15.7,36.5-18.2,39.6c4.1,10,6,21.1,4.8,32.6C295.1,772.7,313.7,789.8,313.7,820.2L313.7,820.2z"/>
	<path fill-rule="evenodd" clip-rule="evenodd" fill="#6A6969" d="M308.1,850.5c-12.1,31.8-42.9,54.3-78.9,54.3
		s-66.9-22.5-79.1-54.3c17.6-21.3,46.4-35.2,79.1-35.2C261.6,815.3,290.5,829.2,308.1,850.5L308.1,850.5z"/>
	<path fill-rule="evenodd" clip-rule="evenodd" fill="#6A6969" d="M229.1,795.2c33.1,0,60.1-27.1,60.1-60.2
		c0-33.2-27-60.2-60.1-60.2c-33.2,0-60.2,27-60.2,60.2C168.9,768.1,195.9,795.2,229.1,795.2L229.1,795.2z"/>
	<path fill-rule="evenodd" clip-rule="evenodd" fill="#261D1C" d="M195.5,764.1c14,0,25.5-11.5,25.5-25.5c0-14-11.5-25.5-25.5-25.5
		S170,724.5,170,738.5C170,752.6,181.4,764.1,195.5,764.1L195.5,764.1z"/>
	<path fill-rule="evenodd" clip-rule="evenodd" fill="#FFFFFF" d="M195.5,760c11.8,0,21.5-9.7,21.5-21.5s-9.7-21.5-21.5-21.5
		s-21.5,9.7-21.5,21.5S183.6,760,195.5,760L195.5,760z"/>
	<path fill-rule="evenodd" clip-rule="evenodd" d="M201.6,754.8c5.4,0,9.8-4.5,9.8-9.9c0-5.4-4.4-9.8-9.8-9.8s-9.9,4.4-9.9,9.8
		C191.7,750.3,196.2,754.8,201.6,754.8L201.6,754.8z"/>
	<path fill-rule="evenodd" clip-rule="evenodd" fill="#FFFFFF" d="M207.6,739.9c1.5,0,2.8-1.1,2.8-2.8c0-1.5-1.3-2.8-2.8-2.8
		c-1.6,0-2.9,1.3-2.9,2.8C204.8,738.8,206,739.9,207.6,739.9L207.6,739.9z"/>
	<path fill-rule="evenodd" clip-rule="evenodd" fill="#261D1C" d="M262.8,764.1c14.1,0,25.5-11.5,25.5-25.5
		c0-14-11.4-25.5-25.5-25.5c-14,0-25.4,11.5-25.4,25.5C237.4,752.6,248.8,764.1,262.8,764.1L262.8,764.1z"/>
	<path fill-rule="evenodd" clip-rule="evenodd" fill="#FFFFFF" d="M262.8,760c11.9,0,21.6-9.7,21.6-21.5s-9.7-21.5-21.6-21.5
		c-11.8,0-21.5,9.7-21.5,21.5S251,760,262.8,760L262.8,760z"/>
	<path fill-rule="evenodd" clip-rule="evenodd" d="M255.3,743.3c5.5,0,9.9-4.4,9.9-9.8c0-5.4-4.4-9.9-9.9-9.9
		c-5.4,0-9.8,4.5-9.8,9.9C245.6,738.9,249.9,743.3,255.3,743.3L255.3,743.3z"/>
	<path fill-rule="evenodd" clip-rule="evenodd" fill="#FFFFFF" d="M261.5,728.6c1.5,0,2.8-1.3,2.8-2.8s-1.3-2.8-2.8-2.8
		c-1.6,0-2.9,1.3-2.9,2.8S259.9,728.6,261.5,728.6L261.5,728.6z"/>
	<path fill-rule="evenodd" clip-rule="evenodd" fill="#FCEE18" d="M228.9,783.7l-6.8-14.5c0.1-8.4,13.2-8.5,13.6,0L228.9,783.7z"/>
	<path fill-rule="evenodd" clip-rule="evenodd" fill="#EE8322" d="M199.6,899.5v15.3l9.8,9.8c1.5,1.5,1.5,3.8,0,5.3l0,0
		c-1.4,1.5-3.8,1.5-5.2,0l-7.7-7.6c-0.2,0-0.5,0-0.7,0l0,0c-0.1,0-0.3,0-0.5,0l-7.6,7.6c-1.5,1.5-3.8,1.5-5.3,0l0,0
		c-1.4-1.5-1.4-3.8,0-5.3l9.7-9.7v-18.6C194.5,897.6,197.1,898.6,199.6,899.5L199.6,899.5z M266,896.4v18.4l9.9,9.8
		c1.4,1.5,1.4,3.8,0,5.3l0,0c-1.5,1.5-3.9,1.5-5.3,0l-7.6-7.6c-0.2,0-0.5,0-0.7,0l0,0c-0.2,0-0.3,0-0.6,0l-7.6,7.6
		c-1.5,1.5-3.8,1.5-5.3,0l0,0c-1.4-1.5-1.4-3.8,0-5.3l9.7-9.7v-15.4C261.1,898.6,263.6,897.6,266,896.4L266,896.4z"/>
	<path fill-rule="evenodd" clip-rule="evenodd" fill="#261D1C" d="M391.4,820.5c0,0-69.5-5.2-84.5-8.3c-14.9-3.1-20.5-32.5-3.9-34.6
		C319.4,775.5,391.4,820.5,391.4,820.5L391.4,820.5z"/>
	<path fill-rule="evenodd" clip-rule="evenodd" fill="#261D1C" d="M203.6,821c7.1,8.6,14.1,8.4,21.1,0
		C217.9,824.5,210.9,825,203.6,821L203.6,821z"/>
	<path fill-rule="evenodd" clip-rule="evenodd" fill="#261D1C" d="M233.4,821c7,8.6,14.1,8.4,21.1,0
		C247.6,824.5,240.6,825,233.4,821L233.4,821z"/>
	<path fill-rule="evenodd" clip-rule="evenodd" fill="#261D1C" d="M173.9,835.4c7.1,8.6,14.1,8.4,21.1,0
		C188.1,838.9,181.1,839.3,173.9,835.4L173.9,835.4z"/>
	<path fill-rule="evenodd" clip-rule="evenodd" fill="#261D1C" d="M173.9,849.7c7.1,8.7,14.1,8.5,21.1,0
		C188.1,853.1,181.1,853.6,173.9,849.7L173.9,849.7z"/>
	<path fill-rule="evenodd" clip-rule="evenodd" fill="#261D1C" d="M173.9,864c7.1,8.6,14.1,8.4,21.1,0
		C188.1,867.5,181.1,867.9,173.9,864L173.9,864z"/>
	<path fill-rule="evenodd" clip-rule="evenodd" fill="#261D1C" d="M173.9,878.4c7.1,8.6,14.1,8.4,21.1,0
		C188.1,881.8,181.1,882.3,173.9,878.4L173.9,878.4z"/>
	<path fill-rule="evenodd" clip-rule="evenodd" fill="#261D1C" d="M203.6,835.4c7.1,8.6,14.1,8.4,21.1,0
		C217.9,838.9,210.9,839.3,203.6,835.4L203.6,835.4z"/>
	<path fill-rule="evenodd" clip-rule="evenodd" fill="#261D1C" d="M203.6,849.7c7.1,8.7,14.1,8.5,21.1,0
		C217.9,853.1,210.9,853.6,203.6,849.7L203.6,849.7z"/>
	<path fill-rule="evenodd" clip-rule="evenodd" fill="#261D1C" d="M203.6,864c7.1,8.6,14.1,8.4,21.1,0
		C217.9,867.5,210.9,867.9,203.6,864L203.6,864z"/>
	<path fill-rule="evenodd" clip-rule="evenodd" fill="#261D1C" d="M203.6,878.4c7.1,8.6,14.1,8.4,21.1,0
		C217.9,881.8,210.9,882.3,203.6,878.4L203.6,878.4z"/>
	<path fill-rule="evenodd" clip-rule="evenodd" fill="#261D1C" d="M203.6,892.7c7.1,8.6,14.1,8.4,21.1,0
		C217.9,896.2,210.9,896.5,203.6,892.7L203.6,892.7z"/>
	<path fill-rule="evenodd" clip-rule="evenodd" fill="#261D1C" d="M233.4,835.4c7,8.6,14.1,8.4,21.1,0
		C247.6,838.9,240.6,839.3,233.4,835.4L233.4,835.4z"/>
	<path fill-rule="evenodd" clip-rule="evenodd" fill="#261D1C" d="M233.4,849.7c7,8.7,14.1,8.5,21.1,0
		C247.6,853.1,240.6,853.6,233.4,849.7L233.4,849.7z"/>
	<path fill-rule="evenodd" clip-rule="evenodd" fill="#261D1C" d="M233.4,864c7,8.6,14.1,8.4,21.1,0
		C247.6,867.5,240.6,867.9,233.4,864L233.4,864z"/>
	<path fill-rule="evenodd" clip-rule="evenodd" fill="#261D1C" d="M233.4,878.4c7,8.6,14.1,8.4,21.1,0
		C247.6,881.8,240.6,882.3,233.4,878.4L233.4,878.4z"/>
	<path fill-rule="evenodd" clip-rule="evenodd" fill="#261D1C" d="M233.4,892.7c7,8.6,14.1,8.4,21.1,0
		C247.6,896.2,240.6,896.5,233.4,892.7L233.4,892.7z"/>
	<path fill-rule="evenodd" clip-rule="evenodd" fill="#261D1C" d="M263.1,835.4c7,8.6,14.1,8.4,21.1,0
		C277.4,838.9,270.4,839.3,263.1,835.4L263.1,835.4z"/>
	<path fill-rule="evenodd" clip-rule="evenodd" fill="#261D1C" d="M263.1,849.7c7,8.7,14.1,8.5,21.1,0
		C277.4,853.1,270.4,853.6,263.1,849.7L263.1,849.7z"/>
	<path fill-rule="evenodd" clip-rule="evenodd" fill="#261D1C" d="M263.1,864c7,8.6,14.1,8.4,21.1,0
		C277.4,867.5,270.4,867.9,263.1,864L263.1,864z"/>
	<path fill-rule="evenodd" clip-rule="evenodd" fill="#261D1C" d="M263.1,878.4c7,8.6,14.1,8.4,21.1,0
		C277.4,881.8,270.4,882.3,263.1,878.4L263.1,878.4z"/>
	<path fill-rule="evenodd" clip-rule="evenodd" fill="#A4D4AC" d="M633.9,510.1c0,46.8-37.9,84.6-84.6,84.6
		c-46.8,0-84.6-37.8-84.6-84.6c0-30.9,18.6-47,18.3-79.7c-0.6-7.5,0.1-14.8,2-21.6c0.8-3.2,2-6.3,3.2-9.4
		c-3.4-4.5-22.8-30-17.9-39.2c3-2.4,34,13.2,36.4,14.4c11.5-9.5,26.3-15.4,42.6-15.4c16.4,0,31.4,6,42.9,15.6v-0.1
		c0,0,33.4-17,36.5-14.5c4.9,9.5-15.7,36.4-18.2,39.6c4.1,9.9,6,21,4.8,32.6C615.3,462.6,633.9,479.8,633.9,510.1L633.9,510.1z"/>
	<path fill-rule="evenodd" clip-rule="evenodd" fill="#B7DDBD" d="M628.3,540.3c-12.1,31.8-42.9,54.3-78.9,54.3
		c-36.1,0-66.9-22.5-79.1-54.3c17.6-21.3,46.4-35.2,79.1-35.2C581.9,505.2,610.7,519.1,628.3,540.3L628.3,540.3z"/>
	<path fill-rule="evenodd" clip-rule="evenodd" fill="#B7DDBD" d="M549.4,485.1c33.1,0,60.1-27,60.1-60.2c0-33.1-27-60.2-60.1-60.2
		c-33.2,0-60.2,27.1-60.2,60.2C489.2,458.1,516.2,485.1,549.4,485.1L549.4,485.1z"/>
	<path fill-rule="evenodd" clip-rule="evenodd" fill="#779878" d="M515.7,453.9c14,0,25.5-11.5,25.5-25.5c0-14-11.5-25.4-25.5-25.4
		s-25.5,11.4-25.5,25.4C490.2,442.4,501.7,453.9,515.7,453.9L515.7,453.9z"/>
	<path fill-rule="evenodd" clip-rule="evenodd" fill="#FFFFFF" d="M515.7,449.9c11.8,0,21.5-9.7,21.5-21.5
		c0-11.8-9.7-21.5-21.5-21.5c-11.8,0-21.5,9.7-21.5,21.5C494.2,440.3,503.9,449.9,515.7,449.9L515.7,449.9z"/>
	<path fill-rule="evenodd" clip-rule="evenodd" d="M515.7,438.3c5.4,0,9.8-4.5,9.8-9.9c0-5.4-4.4-9.8-9.8-9.8
		c-5.4,0-9.9,4.4-9.9,9.8C505.8,433.8,510.3,438.3,515.7,438.3L515.7,438.3z"/>
	<path fill-rule="evenodd" clip-rule="evenodd" fill="#FFFFFF" d="M521.8,423.6c1.5,0,2.8-1.3,2.8-2.9c0-1.5-1.3-2.8-2.8-2.8
		c-1.5,0-2.8,1.3-2.8,2.8C519,422.3,520.3,423.6,521.8,423.6L521.8,423.6z"/>
	<path fill-rule="evenodd" clip-rule="evenodd" fill="#779878" d="M583,453.9c14.1,0,25.5-11.5,25.5-25.5c0-14-11.4-25.4-25.5-25.4
		c-14,0-25.4,11.4-25.4,25.4C557.6,442.4,569,453.9,583,453.9L583,453.9z"/>
	<path fill-rule="evenodd" clip-rule="evenodd" fill="#FFFFFF" d="M583,449.9c11.8,0,21.6-9.7,21.6-21.5c0-11.8-9.8-21.5-21.6-21.5
		c-11.8,0-21.5,9.7-21.5,21.5C561.5,440.3,571.2,449.9,583,449.9L583,449.9z"/>
	<path fill-rule="evenodd" clip-rule="evenodd" d="M583,438.3c5.5,0,9.9-4.5,9.9-9.9c0-5.4-4.4-9.8-9.9-9.8c-5.4,0-9.8,4.4-9.8,9.8
		C573.3,433.8,577.6,438.3,583,438.3L583,438.3z"/>
	<path fill-rule="evenodd" clip-rule="evenodd" fill="#FFFFFF" d="M589.2,423.6c1.5,0,2.8-1.3,2.8-2.9c0-1.5-1.3-2.8-2.8-2.8
		c-1.6,0-2.9,1.3-2.9,2.8C586.4,422.3,587.6,423.6,589.2,423.6L589.2,423.6z"/>
	<path fill-rule="evenodd" clip-rule="evenodd" fill="#FCEE18" d="M549.1,473.6l-6.8-14.5c0.1-8.4,13.2-8.4,13.6,0L549.1,473.6z"/>
	<path fill-rule="evenodd" clip-rule="evenodd" fill="#EE8322" d="M519.8,589.4v15.3l9.8,9.9c1.5,1.4,1.5,3.8,0,5.2l0,0
		c-1.4,1.5-3.8,1.5-5.2,0l-7.7-7.6c-0.2,0-0.5,0.1-0.7,0.1l0,0c-0.1,0-0.3-0.1-0.5-0.1l-7.6,7.6c-1.5,1.5-3.8,1.5-5.3,0l0,0
		c-1.4-1.4-1.4-3.8,0-5.2l9.7-9.7v-18.6C514.8,587.5,517.3,588.5,519.8,589.4L519.8,589.4z M586.2,586.3v18.4l9.9,9.9
		c1.4,1.4,1.4,3.8,0,5.2l0,0c-1.5,1.5-3.9,1.5-5.3,0l-7.6-7.6c-0.2,0-0.5,0.1-0.7,0.1l0,0c-0.2,0-0.3-0.1-0.6-0.1l-7.6,7.6
		c-1.5,1.5-3.8,1.5-5.3,0l0,0c-1.4-1.4-1.4-3.8,0-5.2l9.7-9.7v-15.5C581.3,588.5,583.8,587.5,586.2,586.3L586.2,586.3z"/>
	<path fill-rule="evenodd" clip-rule="evenodd" fill="#779878" d="M450.2,569.4c0,0,40-57.2,47-70.7c7-13.6-12.3-36.4-24.4-24.9
		C460.8,485.3,450.2,569.4,450.2,569.4L450.2,569.4z"/>
	<path fill-rule="evenodd" clip-rule="evenodd" fill="#779878" d="M648.2,569.4c0,0-40-57.2-47-70.7c-7-13.6,12.2-36.4,24.2-24.9
		C637.5,485.3,648.2,569.4,648.2,569.4L648.2,569.4z"/>
	<path fill-rule="evenodd" clip-rule="evenodd" fill="#779878" d="M523.9,510.9c7,8.7,14.1,8.4,21.1,0
		C538.1,514.4,531.1,514.8,523.9,510.9L523.9,510.9z"/>
	<path fill-rule="evenodd" clip-rule="evenodd" fill="#779878" d="M553.6,510.9c7,8.7,14.1,8.4,21.1,0
		C567.9,514.4,560.9,514.8,553.6,510.9L553.6,510.9z"/>
	<path fill-rule="evenodd" clip-rule="evenodd" fill="#779878" d="M494.1,525.3c7.1,8.6,14.1,8.4,21.1,0
		C508.3,528.7,501.3,529.2,494.1,525.3L494.1,525.3z"/>
	<path fill-rule="evenodd" clip-rule="evenodd" fill="#779878" d="M494.1,539.7c7.1,8.6,14.1,8.4,21.1,0
		C508.3,543.1,501.3,543.4,494.1,539.7L494.1,539.7z"/>
	<path fill-rule="evenodd" clip-rule="evenodd" fill="#779878" d="M494.1,553.9c7.1,8.7,14.1,8.5,21.1,0
		C508.3,557.3,501.3,557.8,494.1,553.9L494.1,553.9z"/>
	<path fill-rule="evenodd" clip-rule="evenodd" fill="#779878" d="M494.1,568.3c7.1,8.6,14.1,8.4,21.1,0
		C508.3,571.7,501.3,572.2,494.1,568.3L494.1,568.3z"/>
	<path fill-rule="evenodd" clip-rule="evenodd" fill="#779878" d="M523.9,525.3c7,8.6,14.1,8.4,21.1,0
		C538.1,528.7,531.1,529.2,523.9,525.3L523.9,525.3z"/>
	<path fill-rule="evenodd" clip-rule="evenodd" fill="#779878" d="M523.9,539.7c7,8.6,14.1,8.4,21.1,0
		C538.1,543.1,531.1,543.4,523.9,539.7L523.9,539.7z"/>
	<path fill-rule="evenodd" clip-rule="evenodd" fill="#779878" d="M523.9,553.9c7,8.7,14.1,8.5,21.1,0
		C538.1,557.3,531.1,557.8,523.9,553.9L523.9,553.9z"/>
	<path fill-rule="evenodd" clip-rule="evenodd" fill="#779878" d="M523.9,568.3c7,8.6,14.1,8.4,21.1,0
		C538.1,571.7,531.1,572.2,523.9,568.3L523.9,568.3z"/>
	<path fill-rule="evenodd" clip-rule="evenodd" fill="#779878" d="M523.9,582.6c7,8.6,14.1,8.4,21.1,0
		C538.1,586.1,531.1,586.5,523.9,582.6L523.9,582.6z"/>
	<path fill-rule="evenodd" clip-rule="evenodd" fill="#779878" d="M553.6,525.3c7,8.6,14.1,8.4,21.1,0
		C567.9,528.7,560.9,529.2,553.6,525.3L553.6,525.3z"/>
	<path fill-rule="evenodd" clip-rule="evenodd" fill="#779878" d="M553.6,539.7c7,8.6,14.1,8.4,21.1,0
		C567.9,543.1,560.9,543.4,553.6,539.7L553.6,539.7z"/>
	<path fill-rule="evenodd" clip-rule="evenodd" fill="#779878" d="M553.6,553.9c7,8.7,14.1,8.5,21.1,0
		C567.9,557.3,560.9,557.8,553.6,553.9L553.6,553.9z"/>
	<path fill-rule="evenodd" clip-rule="evenodd" fill="#779878" d="M553.6,568.3c7,8.6,14.1,8.4,21.1,0
		C567.9,571.7,560.9,572.2,553.6,568.3L553.6,568.3z"/>
	<path fill-rule="evenodd" clip-rule="evenodd" fill="#779878" d="M553.6,582.6c7,8.6,14.1,8.4,21.1,0
		C567.9,586.1,560.9,586.5,553.6,582.6L553.6,582.6z"/>
	<path fill-rule="evenodd" clip-rule="evenodd" fill="#779878" d="M583.4,525.3c7,8.6,14.1,8.4,21.1,0
		C597.6,528.7,590.6,529.2,583.4,525.3L583.4,525.3z"/>
	<path fill-rule="evenodd" clip-rule="evenodd" fill="#779878" d="M583.4,539.7c7,8.6,14.1,8.4,21.1,0
		C597.6,543.1,590.6,543.4,583.4,539.7L583.4,539.7z"/>
	<path fill-rule="evenodd" clip-rule="evenodd" fill="#779878" d="M583.4,553.9c7,8.7,14.1,8.5,21.1,0
		C597.6,557.3,590.6,557.8,583.4,553.9L583.4,553.9z"/>
	<path fill-rule="evenodd" clip-rule="evenodd" fill="#779878" d="M583.4,568.3c7,8.6,14.1,8.4,21.1,0
		C597.6,571.7,590.6,572.2,583.4,568.3L583.4,568.3z"/>
	<path fill-rule="evenodd" clip-rule="evenodd" fill="#E41E26" d="M633.9,820.2c0,46.8-37.9,84.6-84.6,84.6
		c-46.8,0-84.6-37.8-84.6-84.6c0-31,18.6-47,18.3-79.9c-0.6-7.5,0.1-14.7,2-21.5c0.8-3.2,2-6.4,3.2-9.4c-3.4-4.5-22.8-30-17.9-39.3
		c3-2.3,34,13.3,36.4,14.5c11.5-9.7,26.3-15.4,42.6-15.4c16.4,0,31.4,5.9,42.9,15.6v-0.1c0,0,33.4-17,36.5-14.6
		c5.1,9.7-15.7,36.5-18.2,39.6c4.1,10,6,21.1,4.8,32.6C615.3,772.7,633.9,789.8,633.9,820.2L633.9,820.2z"/>
	<path fill-rule="evenodd" clip-rule="evenodd" fill="#E9522E" d="M628.3,850.5c-12.1,31.8-42.9,54.3-78.9,54.3
		c-36.1,0-66.9-22.5-79.1-54.3c17.6-21.3,46.4-35.2,79.1-35.2C581.9,815.3,610.7,829.2,628.3,850.5L628.3,850.5z"/>
	<path fill-rule="evenodd" clip-rule="evenodd" fill="#E9522E" d="M549.4,795.2c33.1,0,60.1-27.1,60.1-60.2
		c0-33.2-27-60.2-60.1-60.2c-33.2,0-60.2,27-60.2,60.2C489.2,768.1,516.2,795.2,549.4,795.2L549.4,795.2z"/>
	<path fill-rule="evenodd" clip-rule="evenodd" fill="#991C1F" d="M515.7,764.1c14,0,25.5-11.5,25.5-25.5c0-14-11.5-25.5-25.5-25.5
		s-25.5,11.5-25.5,25.5C490.2,752.6,501.7,764.1,515.7,764.1L515.7,764.1z"/>
	<path fill-rule="evenodd" clip-rule="evenodd" fill="#FFFFFF" d="M515.7,760c11.8,0,21.5-9.7,21.5-21.5s-9.7-21.5-21.5-21.5
		c-11.8,0-21.5,9.7-21.5,21.5S503.9,760,515.7,760L515.7,760z"/>
	<path fill-rule="evenodd" clip-rule="evenodd" d="M515.7,748.3c5.4,0,9.8-4.4,9.8-9.8s-4.4-9.8-9.8-9.8c-5.4,0-9.9,4.4-9.9,9.8
		S510.3,748.3,515.7,748.3L515.7,748.3z"/>
	<path fill-rule="evenodd" clip-rule="evenodd" fill="#FFFFFF" d="M521.8,733.6c1.5,0,2.8-1.3,2.8-2.8c0-1.5-1.3-2.8-2.8-2.8
		c-1.5,0-2.8,1.3-2.8,2.8C519,732.3,520.3,733.6,521.8,733.6L521.8,733.6z"/>
	<path fill-rule="evenodd" clip-rule="evenodd" fill="#991C1F" d="M583,764.1c14.1,0,25.5-11.5,25.5-25.5c0-14-11.4-25.5-25.5-25.5
		c-14,0-25.4,11.5-25.4,25.5C557.6,752.6,569,764.1,583,764.1L583,764.1z"/>
	<path fill-rule="evenodd" clip-rule="evenodd" fill="#FFFFFF" d="M583,760c11.8,0,21.6-9.7,21.6-21.5s-9.8-21.5-21.6-21.5
		c-11.8,0-21.5,9.7-21.5,21.5S571.2,760,583,760L583,760z"/>
	<path fill-rule="evenodd" clip-rule="evenodd" d="M583,748.3c5.5,0,9.9-4.4,9.9-9.8s-4.4-9.8-9.9-9.8c-5.4,0-9.8,4.4-9.8,9.8
		S577.6,748.3,583,748.3L583,748.3z"/>
	<path fill-rule="evenodd" clip-rule="evenodd" fill="#FFFFFF" d="M589.2,733.6c1.5,0,2.8-1.3,2.8-2.8c0-1.5-1.3-2.8-2.8-2.8
		c-1.6,0-2.9,1.3-2.9,2.8C586.4,732.3,587.6,733.6,589.2,733.6L589.2,733.6z"/>
	<path fill-rule="evenodd" clip-rule="evenodd" fill="#FCEE18" d="M549.1,783.7l-6.8-14.5c0.1-8.4,13.2-8.5,13.6,0L549.1,783.7z"/>
	<path fill-rule="evenodd" clip-rule="evenodd" fill="#EE8322" d="M519.8,899.5v15.3l9.8,9.8c1.5,1.5,1.5,3.8,0,5.3l0,0
		c-1.4,1.5-3.8,1.5-5.2,0l-7.7-7.6c-0.2,0-0.5,0-0.7,0l0,0c-0.1,0-0.3,0-0.5,0l-7.6,7.6c-1.5,1.5-3.8,1.5-5.3,0l0,0
		c-1.4-1.5-1.4-3.8,0-5.3l9.7-9.7v-18.6C514.8,897.6,517.3,898.6,519.8,899.5L519.8,899.5z M586.2,896.4v18.4l9.9,9.8
		c1.4,1.5,1.4,3.8,0,5.3l0,0c-1.5,1.5-3.9,1.5-5.3,0l-7.6-7.6c-0.2,0-0.5,0-0.7,0l0,0c-0.2,0-0.3,0-0.6,0l-7.6,7.6
		c-1.5,1.5-3.8,1.5-5.3,0l0,0c-1.4-1.5-1.4-3.8,0-5.3l9.7-9.7v-15.4C581.3,898.6,583.8,897.6,586.2,896.4L586.2,896.4z"/>
	<path fill-rule="evenodd" clip-rule="evenodd" fill="#991C1F" d="M450.2,879.5c0,0,40-57.2,47-70.8c7-13.4-12.3-36.3-24.4-24.8
		S450.2,879.5,450.2,879.5L450.2,879.5z"/>
	<path fill-rule="evenodd" clip-rule="evenodd" fill="#991C1F" d="M726.5,793.9c0,0-65.6,23.7-80.5,27
		c-14.8,3.3-31.8-21.3-17.7-29.9C642.5,782.3,726.5,793.9,726.5,793.9L726.5,793.9z"/>
	<path fill-rule="evenodd" clip-rule="evenodd" fill="#991C1F" d="M523.9,821c7,8.6,14.1,8.4,21.1,0
		C538.1,824.5,531.1,825,523.9,821L523.9,821z"/>
	<path fill-rule="evenodd" clip-rule="evenodd" fill="#991C1F" d="M553.6,821c7,8.6,14.1,8.4,21.1,0
		C567.9,824.5,560.9,825,553.6,821L553.6,821z"/>
	<path fill-rule="evenodd" clip-rule="evenodd" fill="#991C1F" d="M494.1,835.4c7.1,8.6,14.1,8.4,21.1,0
		C508.3,838.9,501.3,839.3,494.1,835.4L494.1,835.4z"/>
	<path fill-rule="evenodd" clip-rule="evenodd" fill="#991C1F" d="M494.1,849.7c7.1,8.7,14.1,8.5,21.1,0
		C508.3,853.1,501.3,853.6,494.1,849.7L494.1,849.7z"/>
	<path fill-rule="evenodd" clip-rule="evenodd" fill="#991C1F" d="M494.1,864c7.1,8.6,14.1,8.4,21.1,0
		C508.3,867.5,501.3,867.9,494.1,864L494.1,864z"/>
	<path fill-rule="evenodd" clip-rule="evenodd" fill="#991C1F" d="M494.1,878.4c7.1,8.6,14.1,8.4,21.1,0
		C508.3,881.8,501.3,882.3,494.1,878.4L494.1,878.4z"/>
	<path fill-rule="evenodd" clip-rule="evenodd" fill="#991C1F" d="M523.9,835.4c7,8.6,14.1,8.4,21.1,0
		C538.1,838.9,531.1,839.3,523.9,835.4L523.9,835.4z"/>
	<path fill-rule="evenodd" clip-rule="evenodd" fill="#991C1F" d="M523.9,849.7c7,8.7,14.1,8.5,21.1,0
		C538.1,853.1,531.1,853.6,523.9,849.7L523.9,849.7z"/>
	<path fill-rule="evenodd" clip-rule="evenodd" fill="#991C1F" d="M523.9,864c7,8.6,14.1,8.4,21.1,0
		C538.1,867.5,531.1,867.9,523.9,864L523.9,864z"/>
	<path fill-rule="evenodd" clip-rule="evenodd" fill="#991C1F" d="M523.9,878.4c7,8.6,14.1,8.4,21.1,0
		C538.1,881.8,531.1,882.3,523.9,878.4L523.9,878.4z"/>
	<path fill-rule="evenodd" clip-rule="evenodd" fill="#991C1F" d="M523.9,892.7c7,8.6,14.1,8.4,21.1,0
		C538.1,896.2,531.1,896.5,523.9,892.7L523.9,892.7z"/>
	<path fill-rule="evenodd" clip-rule="evenodd" fill="#991C1F" d="M553.6,835.4c7,8.6,14.1,8.4,21.1,0
		C567.9,838.9,560.9,839.3,553.6,835.4L553.6,835.4z"/>
	<path fill-rule="evenodd" clip-rule="evenodd" fill="#991C1F" d="M553.6,849.7c7,8.7,14.1,8.5,21.1,0
		C567.9,853.1,560.9,853.6,553.6,849.7L553.6,849.7z"/>
	<path fill-rule="evenodd" clip-rule="evenodd" fill="#991C1F" d="M553.6,864c7,8.6,14.1,8.4,21.1,0
		C567.9,867.5,560.9,867.9,553.6,864L553.6,864z"/>
	<path fill-rule="evenodd" clip-rule="evenodd" fill="#991C1F" d="M553.6,878.4c7,8.6,14.1,8.4,21.1,0
		C567.9,881.8,560.9,882.3,553.6,878.4L553.6,878.4z"/>
	<path fill-rule="evenodd" clip-rule="evenodd" fill="#991C1F" d="M553.6,892.7c7,8.6,14.1,8.4,21.1,0
		C567.9,896.2,560.9,896.5,553.6,892.7L553.6,892.7z"/>
	<path fill-rule="evenodd" clip-rule="evenodd" fill="#991C1F" d="M583.4,835.4c7,8.6,14.1,8.4,21.1,0
		C597.6,838.9,590.6,839.3,583.4,835.4L583.4,835.4z"/>
	<path fill-rule="evenodd" clip-rule="evenodd" fill="#991C1F" d="M583.4,849.7c7,8.7,14.1,8.5,21.1,0
		C597.6,853.1,590.6,853.6,583.4,849.7L583.4,849.7z"/>
	<path fill-rule="evenodd" clip-rule="evenodd" fill="#991C1F" d="M583.4,864c7,8.6,14.1,8.4,21.1,0
		C597.6,867.5,590.6,867.9,583.4,864L583.4,864z"/>
	<path fill-rule="evenodd" clip-rule="evenodd" fill="#991C1F" d="M583.4,878.4c7,8.6,14.1,8.4,21.1,0
		C597.6,881.8,590.6,882.3,583.4,878.4L583.4,878.4z"/>
	<path fill-rule="evenodd" clip-rule="evenodd" fill="#A9CC38" d="M997.7,510.1c0,46.8-37.9,84.6-84.6,84.6
		c-46.8,0-84.6-37.8-84.6-84.6c0-30.9,18.6-47,18.3-79.7c-0.6-7.5,0.1-14.8,2-21.6c0.8-3.2,2-6.3,3.2-9.4
		c-3.4-4.5-22.8-30-17.9-39.2c3-2.4,34,13.2,36.4,14.4c11.5-9.5,26.3-15.4,42.6-15.4c16.4,0,31.4,6,42.9,15.6v-0.1
		c0,0,33.4-17,36.7-14.5c4.9,9.5-15.9,36.4-18.3,39.6c4.1,9.9,6,21,4.8,32.5C979.1,462.6,997.7,479.8,997.7,510.1L997.7,510.1z"/>
	<path fill-rule="evenodd" clip-rule="evenodd" fill="#BCD64A" d="M992.2,540.3c-12.2,31.8-43,54.3-79.1,54.3
		c-36.1,0-66.9-22.5-79.1-54.3c17.6-21.3,46.4-35.2,79.1-35.2C945.7,505.2,974.5,519.1,992.2,540.3L992.2,540.3z"/>
	<path fill-rule="evenodd" clip-rule="evenodd" fill="#BCD64A" d="M913.1,485.1c33.1,0,60.1-27,60.1-60.2c0-33.1-27-60.2-60.1-60.2
		c-33.2,0-60.2,27.1-60.2,60.2C852.9,458.1,879.9,485.1,913.1,485.1L913.1,485.1z"/>
	<path fill-rule="evenodd" clip-rule="evenodd" fill="#7B963C" d="M879.5,453.9c14,0,25.5-11.5,25.5-25.5c0-14-11.5-25.4-25.5-25.4
		c-14,0-25.5,11.4-25.5,25.4C854,442.4,865.5,453.9,879.5,453.9L879.5,453.9z"/>
	<path fill-rule="evenodd" clip-rule="evenodd" fill="#FFFFFF" d="M879.5,449.9c11.8,0,21.5-9.7,21.5-21.5
		c0-11.8-9.7-21.5-21.5-21.5c-11.8,0-21.5,9.7-21.5,21.5C858,440.3,867.6,449.9,879.5,449.9L879.5,449.9z"/>
	<path fill-rule="evenodd" clip-rule="evenodd" d="M879.5,438.3c5.4,0,9.8-4.5,9.8-9.9c0-5.4-4.4-9.8-9.8-9.8
		c-5.4,0-9.8,4.4-9.8,9.8C869.7,433.8,874.1,438.3,879.5,438.3L879.5,438.3z"/>
	<path fill-rule="evenodd" clip-rule="evenodd" fill="#FFFFFF" d="M885.6,423.6c1.5,0,2.8-1.3,2.8-2.9c0-1.5-1.3-2.8-2.8-2.8
		s-2.8,1.3-2.8,2.8C882.8,422.3,884.1,423.6,885.6,423.6L885.6,423.6z"/>
	<path fill-rule="evenodd" clip-rule="evenodd" fill="#7B963C" d="M946.9,453.9c14,0,25.4-11.5,25.4-25.5c0-14-11.4-25.4-25.4-25.4
		s-25.5,11.4-25.5,25.4C921.4,442.4,932.9,453.9,946.9,453.9L946.9,453.9z"/>
	<path fill-rule="evenodd" clip-rule="evenodd" fill="#FFFFFF" d="M946.9,449.9c11.8,0,21.5-9.7,21.5-21.5
		c0-11.8-9.7-21.5-21.5-21.5c-11.8,0-21.5,9.7-21.5,21.5C925.4,440.3,935.1,449.9,946.9,449.9L946.9,449.9z"/>
	<path fill-rule="evenodd" clip-rule="evenodd" d="M946.9,438.3c5.4,0,9.8-4.5,9.8-9.9c0-5.4-4.4-9.8-9.8-9.8
		c-5.4,0-9.9,4.4-9.9,9.8C937,433.8,941.5,438.3,946.9,438.3L946.9,438.3z"/>
	<path fill-rule="evenodd" clip-rule="evenodd" fill="#FFFFFF" d="M953,423.6c1.5,0,2.8-1.3,2.8-2.9c0-1.5-1.3-2.8-2.8-2.8
		c-1.6,0-2.9,1.3-2.9,2.8C950.1,422.3,951.4,423.6,953,423.6L953,423.6z"/>
	<path fill-rule="evenodd" clip-rule="evenodd" fill="#FCEE18" d="M912.9,473.6l-6.8-14.5c0.1-8.4,13.3-8.4,13.6,0L912.9,473.6z"/>
	<path fill-rule="evenodd" clip-rule="evenodd" fill="#EE8322" d="M883.6,589.4v15.3l9.9,9.9c1.4,1.4,1.4,3.8,0,5.2l0,0
		c-1.5,1.5-3.9,1.5-5.3,0l-7.6-7.6c-0.2,0-0.5,0.1-0.7,0.1l0,0c-0.2,0-0.3-0.1-0.6-0.1l-7.6,7.6c-1.5,1.5-3.8,1.5-5.3,0l0,0
		c-1.4-1.4-1.4-3.8,0-5.2l9.7-9.7v-18.6C878.6,587.5,881.1,588.5,883.6,589.4L883.6,589.4z M950,586.3v18.4l9.9,9.9
		c1.4,1.4,1.4,3.8,0,5.2l0,0c-1.5,1.5-3.8,1.5-5.3,0l-7.6-7.6c-0.2,0-0.5,0.1-0.7,0.1l0,0c-0.2,0-0.3-0.1-0.6-0.1l-7.6,7.6
		c-1.4,1.5-3.8,1.5-5.3,0l0,0c-1.4-1.4-1.4-3.8,0-5.2l9.7-9.7v-15.5C945.1,588.5,947.6,587.5,950,586.3L950,586.3z"/>
	<path fill-rule="evenodd" clip-rule="evenodd" fill="#7B963C" d="M805.9,411.9c0,0,39.9,57.2,47,70.8c7,13.6-12.3,36.3-24.4,24.8
		C816.5,496,805.9,411.9,805.9,411.9L805.9,411.9z"/>
	<path fill-rule="evenodd" clip-rule="evenodd" fill="#7B963C" d="M1012,569.4c0,0-40-57.2-47-70.7c-7-13.6,12.2-36.3,24.2-24.9
		C1001.3,485.3,1012,569.4,1012,569.4L1012,569.4z"/>
	<path fill-rule="evenodd" clip-rule="evenodd" fill="#7B963C" d="M887.6,510.9c7.1,8.7,14.1,8.4,21.1,0
		C901.9,514.4,894.9,514.8,887.6,510.9L887.6,510.9z"/>
	<path fill-rule="evenodd" clip-rule="evenodd" fill="#7B963C" d="M917.4,510.9c7.1,8.7,14.1,8.4,21.1,0
		C931.6,514.4,924.6,514.8,917.4,510.9L917.4,510.9z"/>
	<path fill-rule="evenodd" clip-rule="evenodd" fill="#7B963C" d="M857.9,525.3c7.1,8.6,14.1,8.4,21.1,0
		C872.1,528.7,865.1,529.2,857.9,525.3L857.9,525.3z"/>
	<path fill-rule="evenodd" clip-rule="evenodd" fill="#7B963C" d="M857.9,539.7c7.1,8.6,14.1,8.4,21.1,0
		C872.1,543.1,865.1,543.4,857.9,539.7L857.9,539.7z"/>
	<path fill-rule="evenodd" clip-rule="evenodd" fill="#7B963C" d="M857.9,553.9c7.1,8.7,14.1,8.5,21.1,0
		C872.1,557.3,865.1,557.8,857.9,553.9L857.9,553.9z"/>
	<path fill-rule="evenodd" clip-rule="evenodd" fill="#7B963C" d="M857.9,568.3c7.1,8.6,14.1,8.4,21.1,0
		C872.1,571.7,865.1,572.2,857.9,568.3L857.9,568.3z"/>
	<path fill-rule="evenodd" clip-rule="evenodd" fill="#7B963C" d="M887.6,525.3c7.1,8.6,14.1,8.4,21.1,0
		C901.9,528.7,894.9,529.2,887.6,525.3L887.6,525.3z"/>
	<path fill-rule="evenodd" clip-rule="evenodd" fill="#7B963C" d="M887.6,539.7c7.1,8.6,14.1,8.4,21.1,0
		C901.9,543.1,894.9,543.4,887.6,539.7L887.6,539.7z"/>
	<path fill-rule="evenodd" clip-rule="evenodd" fill="#7B963C" d="M887.6,553.9c7.1,8.7,14.1,8.5,21.1,0
		C901.9,557.3,894.9,557.8,887.6,553.9L887.6,553.9z"/>
	<path fill-rule="evenodd" clip-rule="evenodd" fill="#7B963C" d="M887.6,568.3c7.1,8.6,14.1,8.4,21.1,0
		C901.9,571.7,894.9,572.2,887.6,568.3L887.6,568.3z"/>
	<path fill-rule="evenodd" clip-rule="evenodd" fill="#7B963C" d="M887.6,582.6c7.1,8.6,14.1,8.4,21.1,0
		C901.9,586.1,894.9,586.5,887.6,582.6L887.6,582.6z"/>
	<path fill-rule="evenodd" clip-rule="evenodd" fill="#7B963C" d="M917.4,525.3c7.1,8.6,14.1,8.4,21.1,0
		C931.6,528.7,924.6,529.2,917.4,525.3L917.4,525.3z"/>
	<path fill-rule="evenodd" clip-rule="evenodd" fill="#7B963C" d="M917.4,539.7c7.1,8.6,14.1,8.4,21.1,0
		C931.6,543.1,924.6,543.4,917.4,539.7L917.4,539.7z"/>
	<path fill-rule="evenodd" clip-rule="evenodd" fill="#7B963C" d="M917.4,553.9c7.1,8.7,14.1,8.5,21.1,0
		C931.6,557.3,924.6,557.8,917.4,553.9L917.4,553.9z"/>
	<path fill-rule="evenodd" clip-rule="evenodd" fill="#7B963C" d="M917.4,568.3c7.1,8.6,14.1,8.4,21.1,0
		C931.6,571.7,924.6,572.2,917.4,568.3L917.4,568.3z"/>
	<path fill-rule="evenodd" clip-rule="evenodd" fill="#7B963C" d="M917.4,582.6c7.1,8.6,14.1,8.4,21.1,0
		C931.6,586.1,924.6,586.5,917.4,582.6L917.4,582.6z"/>
	<path fill-rule="evenodd" clip-rule="evenodd" fill="#7B963C" d="M947.2,525.3c7,8.6,14.1,8.4,21.1,0
		C961.4,528.7,954.4,529.2,947.2,525.3L947.2,525.3z"/>
	<path fill-rule="evenodd" clip-rule="evenodd" fill="#7B963C" d="M947.2,539.7c7,8.6,14.1,8.4,21.1,0
		C961.4,543.1,954.4,543.4,947.2,539.7L947.2,539.7z"/>
	<path fill-rule="evenodd" clip-rule="evenodd" fill="#7B963C" d="M947.2,553.9c7,8.7,14.1,8.5,21.1,0
		C961.4,557.3,954.4,557.8,947.2,553.9L947.2,553.9z"/>
	<path fill-rule="evenodd" clip-rule="evenodd" fill="#7B963C" d="M947.2,568.3c7,8.6,14.1,8.4,21.1,0
		C961.4,571.7,954.4,572.2,947.2,568.3L947.2,568.3z"/>
	<path fill-rule="evenodd" clip-rule="evenodd" fill="#86746B" d="M997.7,820.2c0,46.8-37.9,84.6-84.6,84.6
		c-46.8,0-84.6-37.8-84.6-84.6c0-31,18.6-47,18.3-79.9c-0.6-7.5,0.1-14.7,2-21.5c0.8-3.2,2-6.4,3.2-9.4c-3.4-4.5-22.8-30-17.9-39.3
		c3-2.3,34,13.3,36.4,14.5c11.5-9.7,26.3-15.4,42.6-15.4c16.4,0,31.4,5.9,42.9,15.6v-0.1c0,0,33.4-17,36.7-14.6
		c4.9,9.7-15.9,36.5-18.3,39.6c4.1,10,6,21.1,4.8,32.6C979.1,772.7,997.7,789.8,997.7,820.2L997.7,820.2z"/>
	<path fill-rule="evenodd" clip-rule="evenodd" fill="#A08F87" d="M992.2,850.5c-12.2,31.8-43,54.3-79.1,54.3
		c-36.1,0-66.9-22.5-79.1-54.3c17.6-21.3,46.4-35.2,79.1-35.2C945.7,815.3,974.5,829.2,992.2,850.5L992.2,850.5z"/>
	<path fill-rule="evenodd" clip-rule="evenodd" fill="#A08F87" d="M913.1,795.2c33.1,0,60.1-27.1,60.1-60.2
		c0-33.2-27-60.2-60.1-60.2c-33.2,0-60.2,27-60.2,60.2C852.9,768.1,879.9,795.2,913.1,795.2L913.1,795.2z"/>
	<path fill-rule="evenodd" clip-rule="evenodd" fill="#564139" d="M879.5,764.1c14,0,25.5-11.5,25.5-25.5c0-14-11.5-25.5-25.5-25.5
		c-14,0-25.5,11.5-25.5,25.5C854,752.6,865.5,764.1,879.5,764.1L879.5,764.1z"/>
	<path fill-rule="evenodd" clip-rule="evenodd" fill="#FFFFFF" d="M879.5,760c11.8,0,21.5-9.7,21.5-21.5s-9.7-21.5-21.5-21.5
		c-11.8,0-21.5,9.7-21.5,21.5S867.6,760,879.5,760L879.5,760z"/>
	<path fill-rule="evenodd" clip-rule="evenodd" fill="#564139" d="M946.9,764.1c14,0,25.4-11.5,25.4-25.5c0-14-11.4-25.5-25.4-25.5
		s-25.5,11.5-25.5,25.5C921.4,752.6,932.9,764.1,946.9,764.1L946.9,764.1z"/>
	<path fill-rule="evenodd" clip-rule="evenodd" fill="#FFFFFF" d="M946.9,760c11.8,0,21.5-9.7,21.5-21.5s-9.7-21.5-21.5-21.5
		c-11.8,0-21.5,9.7-21.5,21.5S935.1,760,946.9,760L946.9,760z"/>
	<path fill-rule="evenodd" clip-rule="evenodd" fill="#FCEE18" d="M912.9,783.7l-6.8-14.5c0.1-8.4,13.3-8.5,13.6,0L912.9,783.7z"/>
	<path fill-rule="evenodd" clip-rule="evenodd" fill="#EE8322" d="M883.6,899.5v15.3l9.9,9.8c1.4,1.5,1.4,3.8,0,5.3l0,0
		c-1.5,1.5-3.9,1.5-5.3,0l-7.6-7.6c-0.2,0-0.5,0-0.7,0l0,0c-0.2,0-0.3,0-0.6,0l-7.6,7.6c-1.5,1.5-3.8,1.5-5.3,0l0,0
		c-1.4-1.5-1.4-3.8,0-5.3l9.7-9.7v-18.6C878.6,897.6,881.1,898.6,883.6,899.5L883.6,899.5z M950,896.4v18.4l9.9,9.8
		c1.4,1.5,1.4,3.8,0,5.3l0,0c-1.5,1.5-3.8,1.5-5.3,0l-7.6-7.6c-0.2,0-0.5,0-0.7,0l0,0c-0.2,0-0.3,0-0.6,0l-7.6,7.6
		c-1.4,1.5-3.8,1.5-5.3,0l0,0c-1.4-1.5-1.4-3.8,0-5.3l9.7-9.7v-15.4C945.1,898.6,947.6,897.6,950,896.4L950,896.4z"/>
	<path fill-rule="evenodd" clip-rule="evenodd" fill="#564139" d="M772.7,873.1c0,0,59.9-35.7,71.9-45.3
		c11.9-9.4,3.7-38.1-12.1-32.6C817,800.7,772.7,873.1,772.7,873.1L772.7,873.1z"/>
	<path fill-rule="evenodd" clip-rule="evenodd" fill="#564139" d="M887.6,821c7.1,8.6,14.1,8.4,21.1,0
		C901.9,824.5,894.9,825,887.6,821L887.6,821z"/>
	<path fill-rule="evenodd" clip-rule="evenodd" fill="#564139" d="M917.4,821c7.1,8.6,14.1,8.4,21.1,0
		C931.6,824.5,924.6,825,917.4,821L917.4,821z"/>
	<path fill-rule="evenodd" clip-rule="evenodd" fill="#564139" d="M857.9,835.4c7.1,8.6,14.1,8.4,21.1,0
		C872.1,838.9,865.1,839.3,857.9,835.4L857.9,835.4z"/>
	<path fill-rule="evenodd" clip-rule="evenodd" fill="#564139" d="M857.9,849.7c7.1,8.7,14.1,8.5,21.1,0
		C872.1,853.1,865.1,853.6,857.9,849.7L857.9,849.7z"/>
	<path fill-rule="evenodd" clip-rule="evenodd" fill="#564139" d="M857.9,864c7.1,8.6,14.1,8.4,21.1,0
		C872.1,867.5,865.1,867.9,857.9,864L857.9,864z"/>
	<path fill-rule="evenodd" clip-rule="evenodd" fill="#564139" d="M857.9,878.4c7.1,8.6,14.1,8.4,21.1,0
		C872.1,881.8,865.1,882.3,857.9,878.4L857.9,878.4z"/>
	<path fill-rule="evenodd" clip-rule="evenodd" fill="#564139" d="M887.6,835.4c7.1,8.6,14.1,8.4,21.1,0
		C901.9,838.9,894.9,839.3,887.6,835.4L887.6,835.4z"/>
	<path fill-rule="evenodd" clip-rule="evenodd" fill="#564139" d="M887.6,849.7c7.1,8.7,14.1,8.5,21.1,0
		C901.9,853.1,894.9,853.6,887.6,849.7L887.6,849.7z"/>
	<path fill-rule="evenodd" clip-rule="evenodd" fill="#564139" d="M887.6,864c7.1,8.6,14.1,8.4,21.1,0
		C901.9,867.5,894.9,867.9,887.6,864L887.6,864z"/>
	<path fill-rule="evenodd" clip-rule="evenodd" fill="#564139" d="M887.6,878.4c7.1,8.6,14.1,8.4,21.1,0
		C901.9,881.8,894.9,882.3,887.6,878.4L887.6,878.4z"/>
	<path fill-rule="evenodd" clip-rule="evenodd" fill="#564139" d="M887.6,892.7c7.1,8.6,14.1,8.4,21.1,0
		C901.9,896.2,894.9,896.5,887.6,892.7L887.6,892.7z"/>
	<path fill-rule="evenodd" clip-rule="evenodd" fill="#564139" d="M917.4,835.4c7.1,8.6,14.1,8.4,21.1,0
		C931.6,838.9,924.6,839.3,917.4,835.4L917.4,835.4z"/>
	<path fill-rule="evenodd" clip-rule="evenodd" fill="#564139" d="M917.4,849.7c7.1,8.7,14.1,8.5,21.1,0
		C931.6,853.1,924.6,853.6,917.4,849.7L917.4,849.7z"/>
	<path fill-rule="evenodd" clip-rule="evenodd" fill="#564139" d="M917.4,864c7.1,8.6,14.1,8.4,21.1,0
		C931.6,867.5,924.6,867.9,917.4,864L917.4,864z"/>
	<path fill-rule="evenodd" clip-rule="evenodd" fill="#564139" d="M917.4,878.4c7.1,8.6,14.1,8.4,21.1,0
		C931.6,881.8,924.6,882.3,917.4,878.4L917.4,878.4z"/>
	<path fill-rule="evenodd" clip-rule="evenodd" fill="#564139" d="M917.4,892.7c7.1,8.6,14.1,8.4,21.1,0
		C931.6,896.2,924.6,896.5,917.4,892.7L917.4,892.7z"/>
	<path fill-rule="evenodd" clip-rule="evenodd" fill="#564139" d="M947.2,835.4c7,8.6,14.1,8.4,21.1,0
		C961.4,838.9,954.4,839.3,947.2,835.4L947.2,835.4z"/>
	<path fill-rule="evenodd" clip-rule="evenodd" fill="#564139" d="M947.2,849.7c7,8.7,14.1,8.5,21.1,0
		C961.4,853.1,954.4,853.6,947.2,849.7L947.2,849.7z"/>
	<path fill-rule="evenodd" clip-rule="evenodd" fill="#564139" d="M947.2,864c7,8.6,14.1,8.4,21.1,0
		C961.4,867.5,954.4,867.9,947.2,864L947.2,864z"/>
	<path fill-rule="evenodd" clip-rule="evenodd" fill="#564139" d="M947.2,878.4c7,8.6,14.1,8.4,21.1,0
		C961.4,881.8,954.4,882.3,947.2,878.4L947.2,878.4z"/>
	<path fill-rule="evenodd" clip-rule="evenodd" fill="#FCD007" d="M1317.9,510.1c0,46.8-37.9,84.6-84.6,84.6
		c-46.8,0-84.6-37.8-84.6-84.6c0-30.9,18.6-47,18.3-79.7c-0.6-7.5,0.1-14.8,2-21.6c0.8-3.2,2-6.3,3.2-9.4
		c-3.4-4.5-22.8-30-17.9-39.2c3-2.4,34,13.2,36.4,14.4c11.5-9.5,26.3-15.4,42.6-15.4c16.4,0,31.4,6,42.9,15.6v-0.1
		c0,0,33.4-17,36.7-14.5c4.9,9.5-15.9,36.4-18.3,39.6c4.1,9.9,6,21,4.8,32.5C1299.3,462.6,1317.9,479.8,1317.9,510.1L1317.9,510.1z"
		/>
	<path fill-rule="evenodd" clip-rule="evenodd" fill="#FDDC54" d="M1312.4,540.3c-12.2,31.8-43,54.3-79.1,54.3s-66.9-22.5-79.1-54.3
		c17.6-21.3,46.4-35.2,79.1-35.2C1265.9,505.2,1294.7,519.1,1312.4,540.3L1312.4,540.3z"/>
	<path fill-rule="evenodd" clip-rule="evenodd" fill="#FDDC54" d="M1233.4,485.1c33.1,0,60.1-27,60.1-60.2c0-33.1-27-60.2-60.1-60.2
		c-33.2,0-60.2,27.1-60.2,60.2C1173.2,458.1,1200.2,485.1,1233.4,485.1L1233.4,485.1z"/>
	<path fill-rule="evenodd" clip-rule="evenodd" fill="#B8952F" d="M1199.7,453.9c14,0,25.5-11.5,25.5-25.5c0-14-11.5-25.4-25.5-25.4
		c-14,0-25.5,11.4-25.5,25.4C1174.2,442.4,1185.7,453.9,1199.7,453.9L1199.7,453.9z"/>
	<path fill-rule="evenodd" clip-rule="evenodd" fill="#FFFFFF" d="M1199.7,449.9c11.8,0,21.5-9.7,21.5-21.5
		c0-11.8-9.7-21.5-21.5-21.5s-21.5,9.7-21.5,21.5C1178.2,440.3,1187.9,449.9,1199.7,449.9L1199.7,449.9z"/>
	<path fill-rule="evenodd" clip-rule="evenodd" fill="#B8952F" d="M1267.2,453.9c14,0,25.4-11.5,25.4-25.5c0-14-11.4-25.4-25.4-25.4
		c-14.1,0-25.5,11.4-25.5,25.4C1241.7,442.4,1253,453.9,1267.2,453.9L1267.2,453.9z"/>
	<path fill-rule="evenodd" clip-rule="evenodd" fill="#FFFFFF" d="M1267.2,449.9c11.8,0,21.5-9.7,21.5-21.5
		c0-11.8-9.7-21.5-21.5-21.5c-11.8,0-21.5,9.7-21.5,21.5C1245.7,440.3,1255.3,449.9,1267.2,449.9L1267.2,449.9z"/>
	<path fill-rule="evenodd" clip-rule="evenodd" fill="#FCEE18" d="M1233.1,473.6l-6.8-14.5c0.1-8.4,13.3-8.4,13.6,0L1233.1,473.6z"
		/>
	<path fill-rule="evenodd" clip-rule="evenodd" fill="#EE8322" d="M1203.8,589.4v15.3l9.9,9.9c1.4,1.4,1.4,3.8,0,5.2l0,0
		c-1.5,1.5-3.9,1.5-5.3,0l-7.6-7.6c-0.2,0-0.5,0.1-0.7,0.1h-0.1c-0.1,0-0.2-0.1-0.5-0.1l-7.6,7.6c-1.5,1.5-3.8,1.5-5.3,0l0,0
		c-1.4-1.4-1.4-3.8,0-5.2l9.7-9.7v-18.6C1198.8,587.5,1201.3,588.5,1203.8,589.4L1203.8,589.4z M1270.3,586.3v18.4l9.9,9.9
		c1.4,1.4,1.4,3.8,0,5.2l0,0c-1.5,1.5-3.8,1.5-5.3,0l-7.6-7.6c-0.2,0-0.5,0.1-0.7,0.1l0,0c-0.2,0-0.3-0.1-0.6-0.1l-7.6,7.6
		c-1.4,1.5-3.8,1.5-5.3,0l0,0c-1.4-1.4-1.4-3.8,0-5.2l9.7-9.7v-15.5C1265.3,588.5,1267.8,587.5,1270.3,586.3L1270.3,586.3z"/>
	<path fill-rule="evenodd" clip-rule="evenodd" fill="#B8952F" d="M1134.2,399c0,0,40,57.2,47,70.7c7,13.6-12.2,36.4-24.2,24.9
		C1144.9,483.1,1134.2,399,1134.2,399L1134.2,399z"/>
	<path fill-rule="evenodd" clip-rule="evenodd" fill="#B8952F" d="M1332.2,399c0,0-40,57.2-47,70.7c-7,13.6,12.2,36.4,24.2,24.9
		C1321.5,483.1,1332.2,399,1332.2,399L1332.2,399z"/>
	<path fill-rule="evenodd" clip-rule="evenodd" fill="#B8952F" d="M1207.9,510.9c7.1,8.7,14.1,8.4,21.1,0
		C1222.1,514.4,1215.1,514.8,1207.9,510.9L1207.9,510.9z"/>
	<path fill-rule="evenodd" clip-rule="evenodd" fill="#B8952F" d="M1237.6,510.9c7.1,8.7,14.1,8.4,21.1,0
		C1251.9,514.4,1244.9,514.8,1237.6,510.9L1237.6,510.9z"/>
	<path fill-rule="evenodd" clip-rule="evenodd" fill="#B8952F" d="M1178.1,525.3c7.1,8.6,14.1,8.4,21.1,0
		C1192.4,528.7,1185.3,529.2,1178.1,525.3L1178.1,525.3z"/>
	<path fill-rule="evenodd" clip-rule="evenodd" fill="#B8952F" d="M1178.1,539.7c7.1,8.6,14.1,8.4,21.1,0
		C1192.4,543.1,1185.3,543.4,1178.1,539.7L1178.1,539.7z"/>
	<path fill-rule="evenodd" clip-rule="evenodd" fill="#B8952F" d="M1178.1,553.9c7.1,8.7,14.1,8.5,21.1,0
		C1192.4,557.3,1185.3,557.8,1178.1,553.9L1178.1,553.9z"/>
	<path fill-rule="evenodd" clip-rule="evenodd" fill="#B8952F" d="M1178.1,568.3c7.1,8.6,14.1,8.4,21.1,0
		C1192.4,571.7,1185.3,572.2,1178.1,568.3L1178.1,568.3z"/>
	<path fill-rule="evenodd" clip-rule="evenodd" fill="#B8952F" d="M1207.9,525.3c7.1,8.6,14.1,8.4,21.1,0
		C1222.1,528.7,1215.1,529.2,1207.9,525.3L1207.9,525.3z"/>
	<path fill-rule="evenodd" clip-rule="evenodd" fill="#B8952F" d="M1207.9,539.7c7.1,8.6,14.1,8.4,21.1,0
		C1222.1,543.1,1215.1,543.4,1207.9,539.7L1207.9,539.7z"/>
	<path fill-rule="evenodd" clip-rule="evenodd" fill="#B8952F" d="M1207.9,553.9c7.1,8.7,14.1,8.5,21.1,0
		C1222.1,557.3,1215.1,557.8,1207.9,553.9L1207.9,553.9z"/>
	<path fill-rule="evenodd" clip-rule="evenodd" fill="#B8952F" d="M1207.9,568.3c7.1,8.6,14.1,8.4,21.1,0
		C1222.1,571.7,1215.1,572.2,1207.9,568.3L1207.9,568.3z"/>
	<path fill-rule="evenodd" clip-rule="evenodd" fill="#B8952F" d="M1207.9,582.6c7.1,8.6,14.1,8.4,21.1,0
		C1222.1,586.1,1215.1,586.5,1207.9,582.6L1207.9,582.6z"/>
	<path fill-rule="evenodd" clip-rule="evenodd" fill="#B8952F" d="M1237.6,525.3c7.1,8.6,14.1,8.4,21.1,0
		C1251.9,528.7,1244.9,529.2,1237.6,525.3L1237.6,525.3z"/>
	<path fill-rule="evenodd" clip-rule="evenodd" fill="#B8952F" d="M1237.6,539.7c7.1,8.6,14.1,8.4,21.1,0
		C1251.9,543.1,1244.9,543.4,1237.6,539.7L1237.6,539.7z"/>
	<path fill-rule="evenodd" clip-rule="evenodd" fill="#B8952F" d="M1237.6,553.9c7.1,8.7,14.1,8.5,21.1,0
		C1251.9,557.3,1244.9,557.8,1237.6,553.9L1237.6,553.9z"/>
	<path fill-rule="evenodd" clip-rule="evenodd" fill="#B8952F" d="M1237.6,568.3c7.1,8.6,14.1,8.4,21.1,0
		C1251.9,571.7,1244.9,572.2,1237.6,568.3L1237.6,568.3z"/>
	<path fill-rule="evenodd" clip-rule="evenodd" fill="#B8952F" d="M1237.6,582.6c7.1,8.6,14.1,8.4,21.1,0
		C1251.9,586.1,1244.9,586.5,1237.6,582.6L1237.6,582.6z"/>
	<path fill-rule="evenodd" clip-rule="evenodd" fill="#B8952F" d="M1267.4,525.3c7,8.6,14.1,8.4,21.1,0
		C1281.6,528.7,1274.6,529.2,1267.4,525.3L1267.4,525.3z"/>
	<path fill-rule="evenodd" clip-rule="evenodd" fill="#B8952F" d="M1267.4,539.7c7,8.6,14.1,8.4,21.1,0
		C1281.6,543.1,1274.6,543.4,1267.4,539.7L1267.4,539.7z"/>
	<path fill-rule="evenodd" clip-rule="evenodd" fill="#B8952F" d="M1267.4,553.9c7,8.7,14.1,8.5,21.1,0
		C1281.6,557.3,1274.6,557.8,1267.4,553.9L1267.4,553.9z"/>
	<path fill-rule="evenodd" clip-rule="evenodd" fill="#B8952F" d="M1267.4,568.3c7,8.6,14.1,8.4,21.1,0
		C1281.6,571.7,1274.6,572.2,1267.4,568.3L1267.4,568.3z"/>
	<path fill-rule="evenodd" clip-rule="evenodd" fill="#B19873" d="M1317.9,820.2c0,46.8-37.9,84.6-84.6,84.6
		c-46.8,0-84.6-37.8-84.6-84.6c0-31,18.6-47,18.3-79.9c-0.6-7.5,0.1-14.7,2-21.5c0.8-3.2,2-6.4,3.2-9.4c-3.4-4.5-22.8-30-17.9-39.3
		c3-2.3,34,13.3,36.4,14.5c11.5-9.7,26.3-15.4,42.6-15.4c16.4,0,31.4,5.9,42.9,15.6v-0.1c0,0,33.4-17,36.7-14.6
		c4.9,9.7-15.9,36.5-18.3,39.6c4.1,10,6,21.1,4.8,32.6C1299.3,772.7,1317.9,789.8,1317.9,820.2L1317.9,820.2z"/>
	<path fill-rule="evenodd" clip-rule="evenodd" fill="#C2AC8B" d="M1312.4,850.5c-12.2,31.8-43,54.3-79.1,54.3s-66.9-22.5-79.1-54.3
		c17.6-21.3,46.4-35.2,79.1-35.2C1265.9,815.3,1294.7,829.2,1312.4,850.5L1312.4,850.5z"/>
	<path fill-rule="evenodd" clip-rule="evenodd" fill="#C2AC8B" d="M1233.4,795.2c33.1,0,60.1-27.1,60.1-60.2
		c0-33.2-27-60.2-60.1-60.2c-33.2,0-60.2,27-60.2,60.2C1173.2,768.1,1200.2,795.2,1233.4,795.2L1233.4,795.2z"/>
	<path fill-rule="evenodd" clip-rule="evenodd" fill="#826A4C" d="M1199.7,764.1c14,0,25.5-11.5,25.5-25.5c0-14-11.5-25.5-25.5-25.5
		c-14,0-25.5,11.5-25.5,25.5C1174.2,752.6,1185.7,764.1,1199.7,764.1L1199.7,764.1z"/>
	<path fill-rule="evenodd" clip-rule="evenodd" fill="#FFFFFF" d="M1199.7,760c11.8,0,21.5-9.7,21.5-21.5s-9.7-21.5-21.5-21.5
		s-21.5,9.7-21.5,21.5S1187.9,760,1199.7,760L1199.7,760z"/>
	<path fill-rule="evenodd" clip-rule="evenodd" fill="#826A4C" d="M1267.2,764.1c14,0,25.4-11.5,25.4-25.5c0-14-11.4-25.5-25.4-25.5
		c-14.1,0-25.5,11.5-25.5,25.5C1241.7,752.6,1253,764.1,1267.2,764.1L1267.2,764.1z"/>
	<path fill-rule="evenodd" clip-rule="evenodd" fill="#FFFFFF" d="M1267.2,760c11.8,0,21.5-9.7,21.5-21.5s-9.7-21.5-21.5-21.5
		c-11.8,0-21.5,9.7-21.5,21.5S1255.3,760,1267.2,760L1267.2,760z"/>
	<path fill-rule="evenodd" clip-rule="evenodd" fill="#FCEE18" d="M1233.1,783.7l-6.8-14.5c0.1-8.4,13.3-8.5,13.6,0L1233.1,783.7z"
		/>
	<path fill-rule="evenodd" clip-rule="evenodd" fill="#EE8322" d="M1203.8,899.5v15.3l9.9,9.8c1.4,1.5,1.4,3.8,0,5.3l0,0
		c-1.5,1.5-3.9,1.5-5.3,0l-7.6-7.6c-0.2,0-0.5,0-0.7,0h-0.1c-0.1,0-0.2,0-0.5,0l-7.6,7.6c-1.5,1.5-3.8,1.5-5.3,0l0,0
		c-1.4-1.5-1.4-3.8,0-5.3l9.7-9.7v-18.6C1198.8,897.6,1201.3,898.6,1203.8,899.5L1203.8,899.5z M1270.3,896.4v18.4l9.9,9.8
		c1.4,1.5,1.4,3.8,0,5.3l0,0c-1.5,1.5-3.8,1.5-5.3,0l-7.6-7.6c-0.2,0-0.5,0-0.7,0l0,0c-0.2,0-0.3,0-0.6,0l-7.6,7.6
		c-1.4,1.5-3.8,1.5-5.3,0l0,0c-1.4-1.5-1.4-3.8,0-5.3l9.7-9.7v-15.4C1265.3,898.6,1267.8,897.6,1270.3,896.4L1270.3,896.4z"/>
	<path fill-rule="evenodd" clip-rule="evenodd" fill="#826A4C" d="M1134.2,879.5c0,0,40-57.2,47-70.8c7-13.4-12.2-36.3-24.2-24.8
		S1134.2,879.5,1134.2,879.5L1134.2,879.5z"/>
	<path fill-rule="evenodd" clip-rule="evenodd" fill="#826A4C" d="M1332.2,879.5c0,0-40-57.2-47-70.8c-7-13.4,12.2-36.3,24.2-24.8
		C1321.5,795.4,1332.2,879.5,1332.2,879.5L1332.2,879.5z"/>
	<path fill-rule="evenodd" clip-rule="evenodd" fill="#826A4C" d="M1207.9,821c7.1,8.6,14.1,8.4,21.1,0
		C1222.1,824.5,1215.1,825,1207.9,821L1207.9,821z"/>
	<path fill-rule="evenodd" clip-rule="evenodd" fill="#826A4C" d="M1237.6,821c7.1,8.6,14.1,8.4,21.1,0
		C1251.9,824.5,1244.9,825,1237.6,821L1237.6,821z"/>
	<path fill-rule="evenodd" clip-rule="evenodd" fill="#826A4C" d="M1178.1,835.4c7.1,8.6,14.1,8.4,21.1,0
		C1192.4,838.9,1185.3,839.3,1178.1,835.4L1178.1,835.4z"/>
	<path fill-rule="evenodd" clip-rule="evenodd" fill="#826A4C" d="M1178.1,849.7c7.1,8.7,14.1,8.5,21.1,0
		C1192.4,853.1,1185.3,853.6,1178.1,849.7L1178.1,849.7z"/>
	<path fill-rule="evenodd" clip-rule="evenodd" fill="#826A4C" d="M1178.1,864c7.1,8.6,14.1,8.4,21.1,0
		C1192.4,867.5,1185.3,867.9,1178.1,864L1178.1,864z"/>
	<path fill-rule="evenodd" clip-rule="evenodd" fill="#826A4C" d="M1178.1,878.4c7.1,8.6,14.1,8.4,21.1,0
		C1192.4,881.8,1185.3,882.3,1178.1,878.4L1178.1,878.4z"/>
	<path fill-rule="evenodd" clip-rule="evenodd" fill="#826A4C" d="M1207.9,835.4c7.1,8.6,14.1,8.4,21.1,0
		C1222.1,838.9,1215.1,839.3,1207.9,835.4L1207.9,835.4z"/>
	<path fill-rule="evenodd" clip-rule="evenodd" fill="#826A4C" d="M1207.9,849.7c7.1,8.7,14.1,8.5,21.1,0
		C1222.1,853.1,1215.1,853.6,1207.9,849.7L1207.9,849.7z"/>
	<path fill-rule="evenodd" clip-rule="evenodd" fill="#826A4C" d="M1207.9,864c7.1,8.6,14.1,8.4,21.1,0
		C1222.1,867.5,1215.1,867.9,1207.9,864L1207.9,864z"/>
	<path fill-rule="evenodd" clip-rule="evenodd" fill="#826A4C" d="M1207.9,878.4c7.1,8.6,14.1,8.4,21.1,0
		C1222.1,881.8,1215.1,882.3,1207.9,878.4L1207.9,878.4z"/>
	<path fill-rule="evenodd" clip-rule="evenodd" fill="#826A4C" d="M1207.9,892.7c7.1,8.6,14.1,8.4,21.1,0
		C1222.1,896.2,1215.1,896.5,1207.9,892.7L1207.9,892.7z"/>
	<path fill-rule="evenodd" clip-rule="evenodd" fill="#826A4C" d="M1237.6,835.4c7.1,8.6,14.1,8.4,21.1,0
		C1251.9,838.9,1244.9,839.3,1237.6,835.4L1237.6,835.4z"/>
	<path fill-rule="evenodd" clip-rule="evenodd" fill="#826A4C" d="M1237.6,849.7c7.1,8.7,14.1,8.5,21.1,0
		C1251.9,853.1,1244.9,853.6,1237.6,849.7L1237.6,849.7z"/>
	<path fill-rule="evenodd" clip-rule="evenodd" fill="#826A4C" d="M1237.6,864c7.1,8.6,14.1,8.4,21.1,0
		C1251.9,867.5,1244.9,867.9,1237.6,864L1237.6,864z"/>
	<path fill-rule="evenodd" clip-rule="evenodd" fill="#826A4C" d="M1237.6,878.4c7.1,8.6,14.1,8.4,21.1,0
		C1251.9,881.8,1244.9,882.3,1237.6,878.4L1237.6,878.4z"/>
	<path fill-rule="evenodd" clip-rule="evenodd" fill="#826A4C" d="M1237.6,892.7c7.1,8.6,14.1,8.4,21.1,0
		C1251.9,896.2,1244.9,896.5,1237.6,892.7L1237.6,892.7z"/>
	<path fill-rule="evenodd" clip-rule="evenodd" fill="#826A4C" d="M1267.4,835.4c7,8.6,14.1,8.4,21.1,0
		C1281.6,838.9,1274.6,839.3,1267.4,835.4L1267.4,835.4z"/>
	<path fill-rule="evenodd" clip-rule="evenodd" fill="#826A4C" d="M1267.4,849.7c7,8.7,14.1,8.5,21.1,0
		C1281.6,853.1,1274.6,853.6,1267.4,849.7L1267.4,849.7z"/>
	<path fill-rule="evenodd" clip-rule="evenodd" fill="#826A4C" d="M1267.4,864c7,8.6,14.1,8.4,21.1,0
		C1281.6,867.5,1274.6,867.9,1267.4,864L1267.4,864z"/>
	<path fill-rule="evenodd" clip-rule="evenodd" fill="#826A4C" d="M1267.4,878.4c7,8.6,14.1,8.4,21.1,0
		C1281.6,881.8,1274.6,882.3,1267.4,878.4L1267.4,878.4z"/>
	<path fill-rule="evenodd" clip-rule="evenodd" fill="#AE1F66" d="M515.7,96.8c10.6,0,19.4,7.8,21.1,17.9h-42.4
		C496.3,104.6,505,96.8,515.7,96.8L515.7,96.8z"/>
	<path fill-rule="evenodd" clip-rule="evenodd" fill="#AE1F66" d="M536.5,123.8c-2.4,9.2-10.8,16.1-20.8,16.1
		c-10,0-18.4-6.9-20.8-16.1H536.5z"/>
	<path fill-rule="evenodd" clip-rule="evenodd" fill="#AE1F66" d="M603.8,123.8c-2.4,9.2-10.8,16.1-20.8,16.1
		c-9.9,0-18.3-6.9-20.7-16.1H603.8z"/>
	<path fill-rule="evenodd" clip-rule="evenodd" fill="#AE1F66" d="M583,96.8c10.7,0,19.5,7.8,21.3,17.9h-42.4
		C563.6,104.6,572.5,96.8,583,96.8L583,96.8z"/>
	<path fill-rule="evenodd" clip-rule="evenodd" fill="#B56027" d="M901,117.2c0,0.3,0,0.8,0,1.1c0,11.9-9.7,21.6-21.5,21.6
		c-11.8,0-21.5-9.7-21.5-21.6c0-0.3,0-0.8,0-1.1H901z"/>
	<path fill-rule="evenodd" clip-rule="evenodd" fill="#B56027" d="M968.3,117.2c0.1,0.3,0.1,0.8,0.1,1.1c0,11.9-9.7,21.6-21.5,21.6
		c-11.9,0-21.5-9.7-21.5-21.6c0-0.3,0-0.8,0-1.1H968.3z"/>
	<path fill-rule="evenodd" clip-rule="evenodd" fill="#B56027" d="M911.2,254.1c0,0,43.4-54.6,54.5-65.1
		c10.9-10.6,38.3,1.4,30.7,16.2C988.9,220,911.2,254.1,911.2,254.1L911.2,254.1z"/>
	<path fill-rule="evenodd" clip-rule="evenodd" fill="#80402B" d="M1267.2,96.8c11.8,0,21.5,9.7,21.5,21.5c0,3.1-0.7,5.9-1.7,8.5
		l-41.1-5.7c-0.1-0.9-0.1-1.8-0.1-2.8C1245.7,106.5,1255.2,96.8,1267.2,96.8L1267.2,96.8z"/>
	<path fill-rule="evenodd" clip-rule="evenodd" fill="#80402B" d="M1124.3,259.3c0,0,40-57.1,47-70.7s-12.2-36.3-24.2-24.8
		C1135,175.2,1124.3,259.3,1124.3,259.3L1124.3,259.3z"/>
	<path fill-rule="evenodd" clip-rule="evenodd" fill="#6D1D5A" d="M336.1,409.9c0,0-40,57.2-47,70.8c-7,13.4,12.2,36.3,24.2,24.8
		C325.4,494,336.1,409.9,336.1,409.9L336.1,409.9z"/>
	<path fill-rule="evenodd" clip-rule="evenodd" fill="#779878" d="M515.7,406.9c11,0,20.1,8.4,21.4,19.1h-42.7
		C495.6,415.3,504.7,406.9,515.7,406.9L515.7,406.9z"/>
	<path fill-rule="evenodd" clip-rule="evenodd" fill="#779878" d="M537,431.3c-1.4,10.6-10.3,18.6-21.3,18.6
		c-10.9,0-19.9-8-21.4-18.6H537z"/>
	<path fill-rule="evenodd" clip-rule="evenodd" fill="#779878" d="M583,406.9c11.1,0,20.2,8.4,21.4,19.1h-42.6
		C562.9,415.3,572,406.9,583,406.9L583,406.9z"/>
	<path fill-rule="evenodd" clip-rule="evenodd" fill="#779878" d="M604.4,431.3c-1.4,10.6-10.5,18.6-21.4,18.6
		c-10.8,0-19.9-8-21.3-18.6H604.4z"/>
	<path fill-rule="evenodd" clip-rule="evenodd" fill="#7B963C" d="M879.5,406.9c11.8,0,21.5,9.7,21.5,21.5c0,3.1-0.7,6.1-1.8,8.7
		l-38-19.9C864.9,411.1,871.7,406.9,879.5,406.9L879.5,406.9z"/>
	<path fill-rule="evenodd" clip-rule="evenodd" fill="#7B963C" d="M946.9,406.9c-11.9,0-21.5,9.7-21.5,21.5c0,3.1,0.6,6.1,1.8,8.7
		l37.9-19.9C961.4,411.1,954.6,406.9,946.9,406.9L946.9,406.9z"/>
	<path fill-rule="evenodd" clip-rule="evenodd" fill="#E41E26" d="M1199.7,419.7c-9.7-10.5-19.3,1.5-13.2,9.5
		c1.8,2.3,6.8,7.8,13.2,12.1c6.4-4.3,11.4-9.8,13.2-12.1C1219,421.2,1209.4,409.2,1199.7,419.7L1199.7,419.7z"/>
	<path fill-rule="evenodd" clip-rule="evenodd" fill="#E41E26" d="M1267.2,419.7c-9.8-10.5-19.3,1.5-13.2,9.5
		c1.7,2.3,6.7,7.8,13.2,12.1c6.4-4.3,11.4-9.8,13.1-12.1C1286.3,421.2,1276.8,409.2,1267.2,419.7L1267.2,419.7z"/>
	<path fill-rule="evenodd" clip-rule="evenodd" fill="#FFFFFF" d="M1207.3,417.9c0.9-0.8,2.6-0.1,3.9,1.5c1.3,1.6,1.6,3.4,0.8,4.1
		c-0.9,0.8-2.6,0.1-4-1.5C1206.7,420.4,1206.4,418.5,1207.3,417.9L1207.3,417.9z"/>
	<path fill-rule="evenodd" clip-rule="evenodd" fill="#FFFFFF" d="M1274.1,417.9c0.9-0.8,2.6-0.1,4,1.5c1.3,1.6,1.6,3.4,0.7,4.1
		c-0.9,0.8-2.6,0.1-3.9-1.5C1273.6,420.4,1273.2,418.5,1274.1,417.9L1274.1,417.9z"/>
	<path fill-rule="evenodd" clip-rule="evenodd" fill="#261D1C" d="M67.8,777.5c0,0,69.5,5.2,84.5,8.3c14.9,3.1,20.5,32.5,4,34.6
		C139.7,822.4,67.8,777.5,67.8,777.5L67.8,777.5z"/>
	<path fill-rule="evenodd" clip-rule="evenodd" fill="#991C1F" d="M515.7,717.1c11.8,0,21.5,9.7,21.5,21.5c0,1.1-0.1,2.3-0.2,3.4
		c-11.1-0.1-27.3,0-42.5,0.1c-0.1-1.1-0.2-2.4-0.2-3.6C494.2,726.7,503.9,717.1,515.7,717.1L515.7,717.1z"/>
	<path fill-rule="evenodd" clip-rule="evenodd" d="M879.5,724.6c8.5,0,15.4,6.9,15.4,15.4c0,1-0.1,2.1-0.2,3.1
		c-1.5-7-7.7-12.3-15.2-12.3c-7.5,0-13.7,5.3-15.1,12.3c-0.2-1-0.3-2.1-0.3-3.1C864.1,731.5,871,724.6,879.5,724.6L879.5,724.6z"/>
	<path fill-rule="evenodd" clip-rule="evenodd" d="M946.9,724.6c8.5,0,15.4,6.9,15.4,15.4c0,1-0.1,2.1-0.3,3.1
		c-1.4-7-7.7-12.3-15.1-12.3c-7.5,0-13.7,5.3-15.2,12.3c-0.2-1-0.3-2.1-0.3-3.1C931.4,731.5,938.3,724.6,946.9,724.6L946.9,724.6z"
		/>
	<path fill-rule="evenodd" clip-rule="evenodd" d="M1199.7,752.5c8.5,0,15.4-6.9,15.4-15.4c0-1.1-0.1-2.2-0.3-3.1
		c-1.4,7-7.6,12.3-15.1,12.3c-7.5,0-13.7-5.3-15.1-12.3c-0.2,0.9-0.3,2-0.3,3.1C1184.3,745.6,1191.2,752.5,1199.7,752.5
		L1199.7,752.5z"/>
	<path fill-rule="evenodd" clip-rule="evenodd" d="M1267.2,752.5c8.5,0,15.4-6.9,15.4-15.4c0-1.1-0.1-2.2-0.3-3.1
		c-1.4,7-7.7,12.3-15.1,12.3c-7.5,0-13.7-5.3-15.2-12.3c-0.2,0.9-0.3,2-0.3,3.1C1251.6,745.6,1258.5,752.5,1267.2,752.5
		L1267.2,752.5z"/>
	<path fill-rule="evenodd" clip-rule="evenodd" fill="#564139" d="M1053.6,873.1c0,0-59.9-35.7-71.8-45.3
		c-11.9-9.4-3.7-38.1,11.9-32.6C1009.4,800.7,1053.6,873.1,1053.6,873.1L1053.6,873.1z"/>
</g>
</svg>
